<?xml version="1.0" encoding="UTF-8"?>
<svg id="Layer_1" xmlns="http://www.w3.org/2000/svg" viewBox="0 0 110.86 116.84">
  <defs>
    <style>
      .cls-1 {
        fill: #231f20;
      }

      .cls-2 {
        fill: #fff;
      }

      .cls-3 {
        fill: none;
        stroke: #ed1c24;
        stroke-miterlimit: 10;
      }
    </style>
  </defs>
  <path class="cls-2" d="M55.94,99.56v.24s-.05-.02-.08-.08c.02-.03.05-.08.08-.16Z"/>
  <path class="cls-2" d="M55.86,99.72c-.03.06-.05.08-.08.08v-.2c.02.06.05.1.08.12Z"/>
  <path class="cls-3" d="M8.2,83.56s-9.6,3.2-7.36,12.48,24.11,21.76,55.1,20.16,46.35-12.98,49.87-16.25,4.59-5.9,4.59-5.9"/>
  <g>
    <path class="cls-1" d="M57.36,4.35v82.87c0,2.83-.77,10.74-1.12,12.22-.02.08-.03.13-.05.16-.02-.02-.03-.07-.05-.13-.38-1.37-1.25-9.4-1.25-12.26V4.35h2.47Z"/>
    <rect class="cls-1" x="54.14" y="4.35" width="3.98" height="27.01"/>
  </g>
  <g>
    <path class="cls-1" d="M105.89,86.6l4.91,7.61c.49-.32-3.4-10.02-5.25-12.89L56.39,5.05l-2.14,1.42,51.64,80.12Z"/>
    <polygon class="cls-1" points="72.35 28.64 69.19 30.72 54.59 8.01 57.74 5.93 72.35 28.64"/>
  </g>
  <circle class="cls-1" cx="56.13" cy="6.85" r="6.97"/>
</svg>