<svg width="1440" height="1024" viewBox="0 0 1440 1024" fill="none" xmlns="http://www.w3.org/2000/svg">
<line y1="78.5" x2="1440" y2="78.5" stroke="#ED1C24"/>
<line y1="157.5" x2="1440" y2="157.5" stroke="#ED1C24"/>
<line y1="235.5" x2="1440" y2="235.5" stroke="#ED1C24"/>
<line y1="314.5" x2="1440" y2="314.5" stroke="#ED1C24"/>
<line y1="393.5" x2="1440" y2="393.5" stroke="#ED1C24"/>
<line y1="472.5" x2="1440" y2="472.5" stroke="#ED1C24"/>
<line y1="550.5" x2="1440" y2="550.5" stroke="#ED1C24"/>
<line y1="629.5" x2="1440" y2="629.5" stroke="#ED1C24"/>
<line y1="708.5" x2="1440" y2="708.5" stroke="#ED1C24"/>
<line y1="787.5" x2="1440" y2="787.5" stroke="#ED1C24"/>
<line y1="865.5" x2="1440" y2="865.5" stroke="#ED1C24"/>
<line y1="944.5" x2="1440" y2="944.5" stroke="#ED1C24"/>
<line x1="1024.5" y1="1.55418e-08" x2="1024.5" y2="1024" stroke="#ED1C24"/>
<line x1="1107.5" y1="1.55418e-08" x2="1107.5" y2="1024" stroke="#ED1C24"/>
<line x1="1190.5" y1="1.55418e-08" x2="1190.5" y2="1024" stroke="#ED1C24"/>
<line x1="1273.5" y1="1.55418e-08" x2="1273.5" y2="1024" stroke="#ED1C24"/>
<line x1="1356.5" y1="1.55418e-08" x2="1356.5" y2="1024" stroke="#ED1C24"/>
<line x1="945.5" y1="1.55418e-08" x2="945.5" y2="1024" stroke="#ED1C24"/>
<line x1="866.5" y1="1.55418e-08" x2="866.5" y2="1024" stroke="#ED1C24"/>
<line x1="788.501" y1="1.55418e-08" x2="788.501" y2="1024" stroke="#ED1C24"/>
<line x1="709.5" y1="1.55418e-08" x2="709.5" y2="1024" stroke="#ED1C24"/>
<line x1="630.5" y1="1.55418e-08" x2="630.5" y2="1024" stroke="#ED1C24"/>
<line x1="551.5" y1="1.55418e-08" x2="551.5" y2="1024" stroke="#ED1C24"/>
<line x1="473.501" y1="1.55418e-08" x2="473.501" y2="1024" stroke="#ED1C24"/>
<line x1="394.5" y1="1.55418e-08" x2="394.5" y2="1024" stroke="#ED1C24"/>
<line x1="315.5" y1="1.55418e-08" x2="315.5" y2="1024" stroke="#ED1C24"/>
<line x1="236.5" y1="1.55418e-08" x2="236.5" y2="1024" stroke="#ED1C24"/>
<line x1="158.501" y1="1.55418e-08" x2="158.501" y2="1024" stroke="#ED1C24"/>
<line x1="79.5" y1="1.55418e-08" x2="79.4999" y2="1024" stroke="#ED1C24"/>
<line x1="0.5" y1="1.55418e-08" x2="0.499937" y2="1024" stroke="#ED1C24"/>
</svg>
