<svg width="2032" height="1445" viewBox="0 0 2032 1445" fill="none" xmlns="http://www.w3.org/2000/svg">
<line y1="110.978" x2="2032" y2="110.978" stroke="#B6ADA4"/>
<line y1="222.456" x2="2032" y2="222.456" stroke="#B6ADA4"/>
<line y1="332.522" x2="2032" y2="332.522" stroke="#B6ADA4"/>
<line y1="444" x2="2032" y2="444" stroke="#B6ADA4"/>
<line y1="555.478" x2="2032" y2="555.478" stroke="#B6ADA4"/>
<line y1="666.956" x2="2032" y2="666.956" stroke="#B6ADA4"/>
<line y1="777.022" x2="2032" y2="777.022" stroke="#B6ADA4"/>
<line y1="888.5" x2="2032" y2="888.5" stroke="#B6ADA4"/>
<line y1="999.978" x2="2032" y2="999.978" stroke="#B6ADA4"/>
<line y1="1111.46" x2="2032" y2="1111.46" stroke="#B6ADA4"/>
<line y1="1221.52" x2="2032" y2="1221.52" stroke="#B6ADA4"/>
<line y1="1333" x2="2032" y2="1333" stroke="#B6ADA4"/>
<line x1="1445.48" y1="1.55418e-08" x2="1445.48" y2="1444.98" stroke="#B6ADA4"/>
<line x1="1562.6" y1="1.55418e-08" x2="1562.6" y2="1444.98" stroke="#B6ADA4"/>
<line x1="1679.72" y1="1.55418e-08" x2="1679.72" y2="1444.98" stroke="#B6ADA4"/>
<line x1="1796.84" y1="1.55418e-08" x2="1796.84" y2="1444.98" stroke="#B6ADA4"/>
<line x1="1913.97" y1="1.55418e-08" x2="1913.97" y2="1444.98" stroke="#B6ADA4"/>
<line x1="1334" y1="1.55418e-08" x2="1334" y2="1444.98" stroke="#B6ADA4"/>
<line x1="1222.52" y1="1.55418e-08" x2="1222.52" y2="1444.98" stroke="#B6ADA4"/>
<line x1="1112.46" y1="1.55418e-08" x2="1112.46" y2="1444.98" stroke="#B6ADA4"/>
<line x1="1000.98" y1="1.55418e-08" x2="1000.98" y2="1444.98" stroke="#B6ADA4"/>
<line x1="889.5" y1="1.55418e-08" x2="889.5" y2="1444.98" stroke="#B6ADA4"/>
<line x1="778.022" y1="1.55418e-08" x2="778.022" y2="1444.98" stroke="#B6ADA4"/>
<line x1="667.957" y1="1.55418e-08" x2="667.957" y2="1444.98" stroke="#B6ADA4"/>
<line x1="556.478" y1="1.55418e-08" x2="556.477" y2="1444.98" stroke="#B6ADA4"/>
<line x1="445" y1="1.55418e-08" x2="445" y2="1444.98" stroke="#B6ADA4"/>
<line x1="333.522" y1="1.55418e-08" x2="333.522" y2="1444.98" stroke="#B6ADA4"/>
<line x1="223.457" y1="1.55418e-08" x2="223.457" y2="1444.98" stroke="#B6ADA4"/>
<line x1="111.978" y1="1.55418e-08" x2="111.977" y2="1444.98" stroke="#B6ADA4"/>
<line x1="0.5" y1="1.55418e-08" x2="0.499911" y2="1444.98" stroke="#B6ADA4"/>
</svg>
