<?xml version="1.0" encoding="UTF-8"?>
<svg id="office" xmlns="http://www.w3.org/2000/svg" viewBox="0 0 1125.03 603.09">
  <defs>
    <style>
      .cls-1 {
        fill: #fff;
      }

      .cls-1, .cls-2 {
        stroke: #ed1c24;
        stroke-miterlimit: 10;
        stroke-width: .75px;
      }

      .cls-2 {
        fill: #ed1c24;
      }
    </style>
  </defs>
  <polygon class="cls-1" points="341.26 74.49 358.37 176.18 227.84 508.74 227.84 338.57 341.26 74.49"/>
  <polygon class="cls-1" points="82.06 602.71 1034.81 580.62 1077.61 497.77 732.41 497.77 735.16 468.31 326.98 472.59 179.43 445.09 71.89 483.85 9.56 483.85 82.06 602.71"/>
  <path class="cls-1" d="M230.99,599.26s-50.71-103.84-55.6-111.91c-4.89-8.07-4.4-22.45,8.49-26.41s33.71,0,38.17,10.41,59.1,126.75,59.1,126.75l-50.15,1.16Z"/>
  <polygon class="cls-1" points="299.88 23.6 240.45 59.55 63.79 346.98 132.49 309.12 227.84 338.57 351.18 51.38 299.88 23.6"/>
  <polygon class="cls-1" points="746.34 468.19 725.12 309.12 84.4 321.29 .62 483.85 71.89 483.85 179.43 445.09 326.98 472.59 746.34 468.19"/>
  <g>
    <polygon class="cls-1" points="868.18 60.57 1031.25 65.49 1029 115.59 878.4 107.99 868.18 60.57"/>
    <polygon class="cls-1" points="1042.7 54.33 1026.89 61.75 1026.89 111.01 1054.65 102.5 1054.65 54.33 1042.7 54.33"/>
    <rect class="cls-1" x="1044.57" y="54.33" width="13.85" height="7.87"/>
    <rect class="cls-1" x="1044.57" y="64.4" width="13.85" height="7.87"/>
    <rect class="cls-1" x="1044.57" y="74.48" width="13.85" height="7.87"/>
    <rect class="cls-1" x="1044.57" y="84.56" width="13.85" height="7.87"/>
    <rect class="cls-1" x="1044.57" y="94.63" width="13.85" height="7.87"/>
    <path class="cls-1" d="M954.63,60.57c-9.62,2.31-13.5,16.74-4.92,32.48,8.58,15.74,12.71,19.17,12.71,19.17h75.85l1.89-50.34-85.53-1.31Z"/>
  </g>
  <g>
    <polygon class="cls-1" points="878.53 102.81 1044.55 107.68 1042.31 157.78 887.24 150.18 878.53 102.81"/>
    <polygon class="cls-1" points="1056 96.52 1040.2 103.94 1040.2 153.2 1067.95 144.7 1067.95 96.52 1056 96.52"/>
    <rect class="cls-1" x="1057.88" y="96.52" width="13.85" height="7.87"/>
    <rect class="cls-1" x="1057.88" y="106.6" width="13.85" height="7.87"/>
    <rect class="cls-1" x="1057.88" y="116.67" width="13.85" height="7.87"/>
    <rect class="cls-1" x="1057.88" y="126.75" width="13.85" height="7.87"/>
    <rect class="cls-1" x="1057.88" y="136.83" width="13.85" height="7.87"/>
    <path class="cls-1" d="M967.94,102.77c-9.62,2.31-13.5,16.74-4.92,32.48,8.58,15.74,12.71,19.17,12.71,19.17h75.85l1.89-50.34-85.53-1.31Z"/>
  </g>
  <g>
    <polygon class="cls-1" points="887.24 149.63 1062.04 154.9 1059.63 213.71 898.2 205.57 887.24 149.63"/>
    <polygon class="cls-1" points="1074.31 148.05 1057.37 156 1057.37 208.8 1087.12 199.69 1087.12 148.05 1074.31 148.05"/>
    <rect class="cls-1" x="1076.32" y="148.05" width="14.85" height="8.44"/>
    <rect class="cls-1" x="1076.32" y="158.85" width="14.85" height="8.44"/>
    <rect class="cls-1" x="1076.32" y="169.65" width="14.85" height="8.44"/>
    <rect class="cls-1" x="1076.32" y="180.45" width="14.85" height="8.44"/>
    <rect class="cls-1" x="1076.32" y="191.25" width="14.85" height="8.44"/>
    <path class="cls-1" d="M979.91,152.74c-10.31,2.48-14.47,17.94-5.27,34.82,9.2,16.88,13.62,20.55,13.62,20.55h81.31l2.03-53.96-91.68-1.4Z"/>
  </g>
  <g>
    <polygon class="cls-1" points="893.69 201.4 1082.44 207.09 1079.84 270.59 906.24 265.46 893.69 201.4"/>
    <polygon class="cls-1" points="1095.69 199.69 1077.4 208.28 1077.4 265.3 1109.53 255.45 1109.53 199.69 1095.69 199.69"/>
    <rect class="cls-1" x="1097.86" y="199.69" width="16.04" height="9.11"/>
    <rect class="cls-1" x="1097.86" y="211.35" width="16.04" height="9.11"/>
    <rect class="cls-1" x="1097.86" y="223.02" width="16.04" height="9.11"/>
    <rect class="cls-1" x="1097.86" y="234.68" width="16.04" height="9.11"/>
    <rect class="cls-1" x="1097.86" y="246.34" width="16.04" height="9.11"/>
    <path class="cls-1" d="M993.76,204.76c-11.13,2.68-15.62,19.38-5.69,37.6,9.93,18.22,15.66,26.32,15.66,26.32l86.64,1.36,2.39-63.76-99-1.52Z"/>
  </g>
  <g>
    <polygon class="cls-1" points="898.8 265.24 1092.39 271.07 1089.72 336.2 910.94 327.18 898.8 265.24"/>
    <polygon class="cls-1" points="1105.98 263.48 1087.22 272.29 1087.22 330.76 1120.17 320.67 1120.17 263.48 1105.98 263.48"/>
    <rect class="cls-1" x="1108.21" y="263.48" width="16.45" height="9.35"/>
    <rect class="cls-1" x="1108.21" y="275.44" width="16.45" height="9.35"/>
    <rect class="cls-1" x="1108.21" y="287.4" width="16.45" height="9.35"/>
    <rect class="cls-1" x="1108.21" y="299.36" width="16.45" height="9.35"/>
    <rect class="cls-1" x="1108.21" y="311.33" width="16.45" height="9.35"/>
    <path class="cls-1" d="M1001.44,268.68c-11.42,2.75-16.02,19.87-5.84,38.56s15.08,22.75,15.08,22.75h90.05l2.24-59.76-101.54-1.56Z"/>
  </g>
  <polygon class="cls-1" points="318.78 33.83 557.85 43.51 554.81 92.43 560.89 188.89 358.37 176.18 341.26 74.49 318.78 33.83"/>
  <polygon class="cls-1" points="565.45 38.19 557.49 49.39 555.06 96.35 806.87 106.85 796.61 50.38 565.45 38.19"/>
  <polygon class="cls-1" points="806.87 198.73 806.87 106.85 555.06 96.35 560.89 188.89 806.87 198.73"/>
  <polygon class="cls-1" points="796.61 50.38 837.98 18.49 868.18 208.8 806.87 207.19 806.87 106.85 796.61 50.38"/>
  <polygon class="cls-1" points="868.18 46.95 837.98 18.49 868.18 208.8 889.64 208.8 893.69 184.67 868.18 46.95"/>
  <g>
    <polygon class="cls-1" points="120.22 251.44 106.89 251.44 122.37 230.85 135.7 230.85 120.22 251.44"/>
    <polygon class="cls-1" points="115.77 243.84 105.93 243.84 117.35 228.65 127.19 228.65 115.77 243.84"/>
    <polygon class="cls-1" points="114.81 235.77 104.97 235.77 112.88 225.93 122.71 225.93 114.81 235.77"/>
    <polygon class="cls-1" points="112.17 229.53 104.97 229.53 110.75 222.33 117.95 222.33 112.17 229.53"/>
    <polygon class="cls-1" points="109.74 251.44 117.95 269.36 144.19 255.9 172.94 230.85 135.17 230.85 120.22 251.44 109.74 251.44"/>
    <line class="cls-1" x1="120.22" y1="251.44" x2="144.19" y2="255.9"/>
  </g>
  <g>
    <polygon class="cls-1" points="229.89 77.08 218.09 77.08 231.8 58.85 243.6 58.85 229.89 77.08"/>
    <polygon class="cls-1" points="225.95 70.36 217.24 70.36 227.36 56.9 236.07 56.9 225.95 70.36"/>
    <polygon class="cls-1" points="225.1 63.21 216.39 63.21 223.39 54.5 232.1 54.5 225.1 63.21"/>
    <polygon class="cls-1" points="222.76 57.68 216.39 57.68 221.52 51.31 227.89 51.31 222.76 57.68"/>
    <polygon class="cls-1" points="220.62 77.08 227.89 92.95 251.12 81.03 276.57 58.85 243.13 58.85 229.89 77.08 220.62 77.08"/>
    <line class="cls-1" x1="229.89" y1="77.08" x2="251.12" y2="81.03"/>
  </g>
  <g>
    <polygon class="cls-1" points="326.19 80.59 334.56 80.59 324.84 67.67 316.48 67.67 326.19 80.59"/>
    <polygon class="cls-1" points="328.99 75.82 335.16 75.82 327.99 66.29 321.82 66.29 328.99 75.82"/>
    <polygon class="cls-1" points="329.59 70.76 335.77 70.76 330.8 64.58 324.63 64.58 329.59 70.76"/>
    <polygon class="cls-1" points="331.25 66.84 335.77 66.84 332.14 62.32 327.62 62.32 331.25 66.84"/>
    <polygon class="cls-1" points="332.77 80.59 327.62 91.84 311.14 83.39 293.1 67.67 316.81 67.67 326.19 80.59 332.77 80.59"/>
    <line class="cls-1" x1="326.19" y1="80.59" x2="311.14" y2="83.39"/>
  </g>
  <g>
    <polygon class="cls-1" points="309 113.29 318.27 113.29 307.5 98.97 298.23 98.97 309 113.29"/>
    <polygon class="cls-1" points="312.09 108.01 318.93 108.01 310.99 97.44 304.15 97.44 312.09 108.01"/>
    <polygon class="cls-1" points="312.76 102.39 319.6 102.39 314.1 95.56 307.26 95.56 312.76 102.39"/>
    <polygon class="cls-1" points="314.6 98.06 319.6 98.06 315.58 93.05 310.57 93.05 314.6 98.06"/>
    <polygon class="cls-1" points="316.28 113.29 310.57 125.75 292.33 116.39 272.34 98.97 298.6 98.97 309 113.29 316.28 113.29"/>
    <line class="cls-1" x1="309" y1="113.29" x2="292.33" y2="116.39"/>
  </g>
  <g>
    <polygon class="cls-1" points="291.24 160.64 301.68 160.64 289.56 144.52 279.12 144.52 291.24 160.64"/>
    <polygon class="cls-1" points="294.73 154.7 302.43 154.7 293.49 142.8 285.78 142.8 294.73 154.7"/>
    <polygon class="cls-1" points="295.48 148.37 303.19 148.37 296.99 140.67 289.29 140.67 295.48 148.37"/>
    <polygon class="cls-1" points="297.55 143.49 303.19 143.49 298.66 137.85 293.02 137.85 297.55 143.49"/>
    <polygon class="cls-1" points="299.45 160.64 293.02 174.68 272.47 164.14 249.96 144.52 279.54 144.52 291.24 160.64 299.45 160.64"/>
    <line class="cls-1" x1="291.24" y1="160.64" x2="272.47" y2="164.14"/>
  </g>
  <g>
    <polygon class="cls-1" points="266.15 214 277.78 214 264.27 196.03 252.63 196.03 266.15 214"/>
    <polygon class="cls-1" points="270.03 207.37 278.62 207.37 268.65 194.11 260.06 194.11 270.03 207.37"/>
    <polygon class="cls-1" points="270.87 200.32 279.46 200.32 272.56 191.74 263.97 191.74 270.87 200.32"/>
    <polygon class="cls-1" points="273.18 194.88 279.46 194.88 274.41 188.6 268.13 188.6 273.18 194.88"/>
    <polygon class="cls-1" points="275.29 214 268.13 229.65 245.22 217.9 220.13 196.03 253.1 196.03 266.15 214 275.29 214"/>
    <line class="cls-1" x1="266.15" y1="214" x2="245.22" y2="217.9"/>
  </g>
  <g>
    <polygon class="cls-1" points="235.91 277.87 249.79 277.87 233.67 256.42 219.78 256.42 235.91 277.87"/>
    <polygon class="cls-1" points="240.55 269.95 250.79 269.95 238.89 254.13 228.65 254.13 240.55 269.95"/>
    <polygon class="cls-1" points="241.55 261.54 251.79 261.54 243.55 251.3 233.31 251.3 241.55 261.54"/>
    <polygon class="cls-1" points="244.3 255.05 251.79 255.05 245.77 247.55 238.27 247.55 244.3 255.05"/>
    <polygon class="cls-1" points="246.82 277.87 238.27 296.53 210.93 282.51 180.99 256.42 220.34 256.42 235.91 277.87 246.82 277.87"/>
    <line class="cls-1" x1="235.91" y1="277.87" x2="210.93" y2="282.51"/>
  </g>
  <polygon class="cls-1" points="90.96 345.13 56.94 345.13 70.94 318.48 101.4 318.48 90.96 345.13"/>
  <polygon class="cls-1" points="70.25 345.13 82.43 369.1 103.1 367.11 90.96 345.13 70.25 345.13"/>
  <polygon class="cls-1" points="98.81 325.08 106.33 341.98 103.1 367.11 90.96 345.13 98.81 325.08"/>
  <polygon class="cls-1" points="5.55 387.16 29.84 429.1 50.51 427.11 26.27 387.16 5.55 387.16"/>
  <polygon class="cls-1" points="34.11 367.11 53.75 401.98 50.51 427.11 26.27 387.16 34.11 367.11"/>
  <polygon class="cls-1" points="17.46 367.11 34.11 367.11 26.27 387.16 5.55 387.16 17.46 367.11"/>
  <rect class="cls-1" x="427.89" y="67.4" width="23.59" height="16"/>
  <rect class="cls-1" x="430.03" y="62.32" width="19.3" height="5.07"/>
  <rect class="cls-1" x="433.06" y="58.14" width="13.56" height="4.18"/>
  <rect class="cls-1" x="435.42" y="53.96" width="8.84" height="4.18"/>
  <rect class="cls-1" x="371.32" y="65" width="23.59" height="16"/>
  <rect class="cls-1" x="373.47" y="59.93" width="19.3" height="5.07"/>
  <rect class="cls-1" x="376.49" y="55.75" width="13.56" height="4.18"/>
  <rect class="cls-1" x="378.86" y="51.57" width="8.84" height="4.18"/>
  <rect class="cls-1" x="489.04" y="71.24" width="23.59" height="16"/>
  <rect class="cls-1" x="491.19" y="66.16" width="19.3" height="5.07"/>
  <rect class="cls-1" x="494.22" y="61.98" width="13.56" height="4.18"/>
  <rect class="cls-1" x="496.58" y="57.8" width="8.84" height="4.18"/>
  <rect class="cls-1" x="572.33" y="77.77" width="23.59" height="16"/>
  <rect class="cls-1" x="574.48" y="72.7" width="19.3" height="5.07"/>
  <rect class="cls-1" x="577.5" y="68.52" width="13.56" height="4.18"/>
  <rect class="cls-1" x="579.87" y="64.34" width="8.84" height="4.18"/>
  <rect class="cls-1" x="631.76" y="80.71" width="23.59" height="16"/>
  <rect class="cls-1" x="633.9" y="75.64" width="19.3" height="5.07"/>
  <rect class="cls-1" x="636.93" y="71.46" width="13.56" height="4.18"/>
  <rect class="cls-1" x="639.29" y="67.28" width="8.84" height="4.18"/>
  <rect class="cls-1" x="710.83" y="82.11" width="23.59" height="16"/>
  <rect class="cls-1" x="712.98" y="77.04" width="19.3" height="5.07"/>
  <rect class="cls-1" x="716" y="72.86" width="13.56" height="4.18"/>
  <rect class="cls-1" x="718.37" y="68.68" width="8.84" height="4.18"/>
  <g>
    <rect class="cls-1" x="603.69" y="149.7" width="22.6" height="16.1" transform="translate(5.94 -21.58) rotate(2.02)"/>
    <rect class="cls-1" x="603.69" y="149.5" width="11.3" height="16.1" transform="translate(5.93 -21.38) rotate(2.02)"/>
    <rect class="cls-1" x="603.12" y="165.79" width="22.6" height="16.1" transform="translate(6.51 -21.55) rotate(2.02)"/>
    <rect class="cls-1" x="603.12" y="165.59" width="11.3" height="16.1" transform="translate(6.5 -21.35) rotate(2.02)"/>
  </g>
  <g>
    <rect class="cls-1" x="632.5" y="150.72" width="22.6" height="16.1" transform="translate(6 -22.6) rotate(2.02)"/>
    <rect class="cls-1" x="632.5" y="150.52" width="11.3" height="16.1" transform="translate(5.99 -22.4) rotate(2.02)"/>
    <rect class="cls-1" x="631.93" y="166.81" width="22.6" height="16.1" transform="translate(6.56 -22.57) rotate(2.02)"/>
    <rect class="cls-1" x="631.93" y="166.61" width="11.3" height="16.1" transform="translate(6.55 -22.37) rotate(2.02)"/>
  </g>
  <g>
    <rect class="cls-1" x="661.31" y="151.73" width="22.6" height="16.1" transform="translate(6.05 -23.61) rotate(2.02)"/>
    <rect class="cls-1" x="661.31" y="151.53" width="11.3" height="16.1" transform="translate(6.04 -23.41) rotate(2.02)"/>
    <rect class="cls-1" x="660.74" y="167.82" width="22.6" height="16.1" transform="translate(6.62 -23.58) rotate(2.02)"/>
    <rect class="cls-1" x="660.74" y="167.62" width="11.3" height="16.1" transform="translate(6.61 -23.38) rotate(2.02)"/>
  </g>
  <g>
    <rect class="cls-1" x="573.96" y="107.86" width="22.6" height="16.1" transform="translate(4.45 -20.56) rotate(2.02)"/>
    <rect class="cls-1" x="573.97" y="107.66" width="11.3" height="16.1" transform="translate(4.44 -20.36) rotate(2.02)"/>
    <rect class="cls-1" x="573.4" y="123.95" width="22.6" height="16.1" transform="translate(5.02 -20.53) rotate(2.02)"/>
    <rect class="cls-1" x="573.4" y="123.75" width="11.3" height="16.1" transform="translate(5.01 -20.33) rotate(2.02)"/>
  </g>
  <g>
    <rect class="cls-1" x="603.17" y="108.88" width="22.6" height="16.1" transform="translate(4.5 -21.59) rotate(2.02)"/>
    <rect class="cls-1" x="603.18" y="108.69" width="11.3" height="16.1" transform="translate(4.49 -21.39) rotate(2.02)"/>
    <rect class="cls-1" x="602.6" y="124.97" width="22.6" height="16.1" transform="translate(5.07 -21.56) rotate(2.02)"/>
    <rect class="cls-1" x="602.61" y="124.78" width="11.3" height="16.1" transform="translate(5.06 -21.36) rotate(2.02)"/>
  </g>
  <g>
    <rect class="cls-1" x="632.38" y="109.89" width="22.6" height="16.1" transform="translate(4.56 -22.62) rotate(2.02)"/>
    <rect class="cls-1" x="632.38" y="109.69" width="11.3" height="16.1" transform="translate(4.55 -22.42) rotate(2.02)"/>
    <rect class="cls-1" x="631.81" y="125.98" width="22.6" height="16.1" transform="translate(5.12 -22.59) rotate(2.02)"/>
    <rect class="cls-1" x="631.82" y="125.78" width="11.3" height="16.1" transform="translate(5.11 -22.39) rotate(2.02)"/>
  </g>
  <g>
    <rect class="cls-1" x="661.59" y="110.77" width="22.6" height="16.1" transform="translate(4.61 -23.65) rotate(2.02)"/>
    <rect class="cls-1" x="661.59" y="110.57" width="11.3" height="16.1" transform="translate(4.6 -23.45) rotate(2.02)"/>
    <rect class="cls-1" x="661.02" y="126.86" width="22.6" height="16.1" transform="translate(5.17 -23.62) rotate(2.02)"/>
    <rect class="cls-1" x="661.02" y="126.66" width="11.3" height="16.1" transform="translate(5.16 -23.42) rotate(2.02)"/>
  </g>
  <g>
    <rect class="cls-1" x="708.37" y="113.18" width="22.6" height="16.1" transform="translate(4.72 -25.3) rotate(2.02)"/>
    <rect class="cls-1" x="708.37" y="112.98" width="11.3" height="16.1" transform="translate(4.71 -25.1) rotate(2.02)"/>
    <rect class="cls-1" x="707.8" y="129.27" width="22.6" height="16.1" transform="translate(5.29 -25.27) rotate(2.02)"/>
    <rect class="cls-1" x="707.8" y="129.07" width="11.3" height="16.1" transform="translate(5.28 -25.07) rotate(2.02)"/>
  </g>
  <g>
    <rect class="cls-1" x="737.37" y="114.21" width="22.6" height="16.1" transform="translate(4.78 -26.32) rotate(2.02)"/>
    <rect class="cls-1" x="737.37" y="114.01" width="11.3" height="16.1" transform="translate(4.76 -26.12) rotate(2.02)"/>
    <rect class="cls-1" x="736.8" y="130.3" width="22.6" height="16.1" transform="translate(5.34 -26.29) rotate(2.02)"/>
    <rect class="cls-1" x="736.81" y="130.1" width="11.3" height="16.1" transform="translate(5.33 -26.09) rotate(2.02)"/>
  </g>
  <g>
    <rect class="cls-1" x="765.98" y="115.22" width="22.6" height="16.1" transform="translate(4.83 -27.33) rotate(2.02)"/>
    <rect class="cls-1" x="765.99" y="115.02" width="11.3" height="16.1" transform="translate(4.82 -27.13) rotate(2.02)"/>
    <rect class="cls-1" x="765.41" y="131.31" width="22.6" height="16.1" transform="translate(5.4 -27.3) rotate(2.02)"/>
    <rect class="cls-1" x="765.42" y="131.11" width="11.3" height="16.1" transform="translate(5.39 -27.1) rotate(2.02)"/>
  </g>
  <g>
    <polygon class="cls-1" points="492.51 169.79 472.47 168.39 470.95 154.03 481.6 154.78 491.13 155.45 489.73 140.75 492.51 169.79"/>
    <polygon class="cls-1" points="491.13 155.45 481.6 154.78 480.34 140.25 489.73 140.75 491.13 155.45"/>
    <polygon class="cls-1" points="481.6 154.78 470.95 154.03 469.44 139.68 480.34 140.25 481.6 154.78"/>
    <line class="cls-1" x1="481.6" y1="154.78" x2="482.83" y2="169.11"/>
  </g>
  <g>
    <polygon class="cls-1" points="464.66 168.04 444.62 166.64 443.1 152.28 453.75 153.03 463.28 153.7 461.88 139 464.66 168.04"/>
    <polygon class="cls-1" points="463.28 153.7 453.75 153.03 452.49 138.5 461.88 139 463.28 153.7"/>
    <polygon class="cls-1" points="453.75 153.03 443.1 152.28 441.59 137.93 452.49 138.5 453.75 153.03"/>
    <line class="cls-1" x1="453.75" y1="153.03" x2="454.98" y2="167.36"/>
  </g>
  <g>
    <polygon class="cls-1" points="520.35 171.75 500.31 170.35 498.79 155.99 509.44 156.74 518.97 157.41 517.57 142.71 520.35 171.75"/>
    <polygon class="cls-1" points="518.97 157.41 509.44 156.74 508.18 142.21 517.57 142.71 518.97 157.41"/>
    <polygon class="cls-1" points="509.44 156.74 498.79 155.99 497.28 141.64 508.18 142.21 509.44 156.74"/>
    <line class="cls-1" x1="509.44" y1="156.74" x2="510.68" y2="171.07"/>
  </g>
  <g>
    <polygon class="cls-1" points="548.2 173.64 528.16 172.24 526.64 157.88 537.29 158.63 546.82 159.3 545.42 144.6 548.2 173.64"/>
    <polygon class="cls-1" points="546.82 159.3 537.29 158.63 536.03 144.1 545.42 144.6 546.82 159.3"/>
    <polygon class="cls-1" points="537.29 158.63 526.64 157.88 525.13 143.53 536.03 144.1 537.29 158.63"/>
    <line class="cls-1" x1="537.29" y1="158.63" x2="538.52" y2="172.96"/>
  </g>
  <g>
    <polygon class="cls-1" points="432.3 123.69 412.26 122.29 410.74 107.93 421.39 108.68 430.92 109.35 429.52 94.65 432.3 123.69"/>
    <polygon class="cls-1" points="430.92 109.35 421.39 108.68 420.13 94.15 429.52 94.65 430.92 109.35"/>
    <polygon class="cls-1" points="421.39 108.68 410.74 107.93 409.23 93.58 420.13 94.15 421.39 108.68"/>
    <line class="cls-1" x1="421.39" y1="108.68" x2="422.62" y2="123.01"/>
  </g>
  <g>
    <polygon class="cls-1" points="404.4 121.94 384.36 120.54 382.84 106.18 393.49 106.93 403.02 107.6 401.62 92.9 404.4 121.94"/>
    <polygon class="cls-1" points="403.02 107.6 393.49 106.93 392.23 92.4 401.62 92.9 403.02 107.6"/>
    <polygon class="cls-1" points="393.49 106.93 382.84 106.18 381.33 91.83 392.23 92.4 393.49 106.93"/>
    <line class="cls-1" x1="393.49" y1="106.93" x2="394.72" y2="121.26"/>
  </g>
  <g>
    <polygon class="cls-1" points="376.49 120.65 356.45 119.25 354.93 104.89 365.58 105.64 375.11 106.31 373.71 91.61 376.49 120.65"/>
    <polygon class="cls-1" points="375.11 106.31 365.58 105.64 364.32 91.11 373.71 91.61 375.11 106.31"/>
    <polygon class="cls-1" points="365.58 105.64 354.93 104.89 353.42 90.54 364.32 91.11 365.58 105.64"/>
    <line class="cls-1" x1="365.58" y1="105.64" x2="366.81" y2="119.98"/>
  </g>
  <g>
    <polygon class="cls-1" points="410.59 164.89 390.55 163.49 389.03 149.13 399.68 149.88 409.21 150.55 407.81 135.85 410.59 164.89"/>
    <polygon class="cls-1" points="409.21 150.55 399.68 149.88 398.42 135.35 407.81 135.85 409.21 150.55"/>
    <polygon class="cls-1" points="399.68 149.88 389.03 149.13 387.52 134.78 398.42 135.35 399.68 149.88"/>
    <line class="cls-1" x1="399.68" y1="149.88" x2="400.91" y2="164.21"/>
  </g>
  <g>
    <polygon class="cls-1" points="382.57 163.6 362.53 162.2 361.01 147.84 371.66 148.59 381.19 149.26 379.79 134.56 382.57 163.6"/>
    <polygon class="cls-1" points="381.19 149.26 371.66 148.59 370.4 134.06 379.79 134.56 381.19 149.26"/>
    <polygon class="cls-1" points="371.66 148.59 361.01 147.84 359.5 133.49 370.4 134.06 371.66 148.59"/>
    <line class="cls-1" x1="371.66" y1="148.59" x2="372.89" y2="162.92"/>
  </g>
  <g>
    <polygon class="cls-1" points="460.21 125.65 440.17 124.25 438.65 109.89 449.3 110.64 458.83 111.31 457.43 96.61 460.21 125.65"/>
    <polygon class="cls-1" points="458.83 111.31 449.3 110.64 448.04 96.11 457.43 96.61 458.83 111.31"/>
    <polygon class="cls-1" points="449.3 110.64 438.65 109.89 437.14 95.54 448.04 96.11 449.3 110.64"/>
    <line class="cls-1" x1="449.3" y1="110.64" x2="450.53" y2="124.97"/>
  </g>
  <g>
    <polygon class="cls-1" points="488.11 127.54 468.07 126.14 466.55 111.78 477.2 112.53 486.73 113.2 485.33 98.5 488.11 127.54"/>
    <polygon class="cls-1" points="486.73 113.2 477.2 112.53 475.94 98 485.33 98.5 486.73 113.2"/>
    <polygon class="cls-1" points="477.2 112.53 466.55 111.78 465.04 97.43 475.94 98 477.2 112.53"/>
    <line class="cls-1" x1="477.2" y1="112.53" x2="478.43" y2="126.86"/>
  </g>
  <g>
    <polygon class="cls-1" points="516.02 129.74 495.98 128.34 494.46 113.98 505.11 114.73 514.64 115.4 513.24 100.7 516.02 129.74"/>
    <polygon class="cls-1" points="514.64 115.4 505.11 114.73 503.85 100.2 513.24 100.7 514.64 115.4"/>
    <polygon class="cls-1" points="505.11 114.73 494.46 113.98 492.95 99.63 503.85 100.2 505.11 114.73"/>
    <line class="cls-1" x1="505.11" y1="114.73" x2="506.34" y2="129.06"/>
  </g>
  <g>
    <polygon class="cls-1" points="543.92 131.62 523.88 130.22 522.36 115.86 533.01 116.61 542.54 117.28 541.14 102.58 543.92 131.62"/>
    <polygon class="cls-1" points="542.54 117.28 533.01 116.61 531.75 102.08 541.14 102.58 542.54 117.28"/>
    <polygon class="cls-1" points="533.01 116.61 522.36 115.86 520.85 101.51 531.75 102.08 533.01 116.61"/>
    <line class="cls-1" x1="533.01" y1="116.61" x2="534.24" y2="130.95"/>
  </g>
  <path class="cls-1" d="M698.54,163.91s1.82-5.33,13.46-5.34,12.73,5.34,12.73,5.34l-1.65,31.47-26.09-1.04,1.54-30.43Z"/>
  <path class="cls-1" d="M730.69,165.1s1.82-5.33,13.46-5.34,12.73,5.34,12.73,5.34l-1.65,31.47-26.09-1.04,1.54-30.43Z"/>
  <path class="cls-1" d="M762.97,166.44s1.82-5.33,13.46-5.34,12.73,5.34,12.73,5.34l-1.65,31.47-26.09-1.04,1.54-30.43Z"/>
  <polygon class="cls-1" points="1036.16 278.66 809.24 283.57 822.99 346.98 1014.55 346.98 1091.17 497.77 1124.57 346.98 1036.16 278.66"/>
  <line class="cls-1" x1="1014.55" y1="346.98" x2="1036.16" y2="278.66"/>
  <polygon class="cls-1" points="809.24 283.57 728.75 336.34 732.41 497.77 1091.17 497.77 1014.55 346.98 822.99 346.98 809.24 283.57"/>
  <line class="cls-1" x1="822.99" y1="346.98" x2="732.41" y2="497.77"/>
  <polygon class="cls-1" points="297.07 251.35 276.22 299.66 265.21 264.27 286.05 215.95 297.07 251.35"/>
  <polygon class="cls-1" points="321.15 194.28 300.3 242.6 289.29 207.2 310.14 158.89 321.15 194.28"/>
  <polygon class="cls-1" points="341.46 144.52 324.45 187.96 313.43 152.56 334.28 104.25 341.46 144.52"/>
  <polygon class="cls-1" points="329.96 247.6 323.36 264.03 312.35 228.63 319.7 209.53 329.96 247.6"/>
  <polygon class="cls-1" points="344.07 211.99 337.47 228.42 326.46 193.03 333.82 173.92 344.07 211.99"/>
  <polygon class="cls-1" points="352.55 190.85 346.78 205.23 335.77 169.83 343.13 150.73 352.55 190.85"/>
  <g>
    <polygon class="cls-1" points="84.4 336.07 65.21 336.07 73.11 321.04 90.29 321.04 84.4 336.07"/>
    <polygon class="cls-1" points="65.21 336.07 68.05 339.8 87.24 339.8 93.13 324.77 90.29 321.04 84.4 336.07 65.21 336.07"/>
    <line class="cls-1" x1="84.4" y1="336.07" x2="87.24" y2="339.8"/>
  </g>
  <polygon class="cls-1" points="326.46 339.57 364.71 339.57 373.48 315.8 331.42 316.6 326.46 339.57"/>
  <polygon class="cls-1" points="326.46 339.57 364.71 339.57 365.09 345.34 328.32 345.17 326.46 339.57"/>
  <polygon class="cls-1" points="373.48 315.8 365.09 345.34 364.71 339.57 373.48 315.8"/>
  <polygon class="cls-1" points="373.48 315.8 365.9 360 365.09 345.34 373.48 315.8"/>
  <polygon class="cls-1" points="341.73 345.23 343.61 362.18 366.2 362.18 365.09 345.34 341.73 345.23"/>
  <g>
    <polygon class="cls-1" points="357.11 330.19 334.9 330.19 339.21 312.09 360.07 312.09 357.11 330.19"/>
    <polygon class="cls-1" points="336.76 333.67 334.9 330.19 357.11 330.19 360.07 312.09 361.94 315.58 358.98 333.67 336.76 333.67"/>
    <line class="cls-1" x1="357.11" y1="330.19" x2="358.98" y2="333.67"/>
  </g>
  <polygon class="cls-1" points="56.94 345.13 60.65 349.41 93.13 349.05 102.65 325.08 101.4 318.48 90.96 345.13 56.94 345.13"/>
  <polygon class="cls-1" points="658.26 341.61 652.11 341.61 652.28 360.51 630.84 360.51 630.51 341.61 625.13 341.61 625.13 335.47 658.26 335.47 658.26 341.61"/>
  <rect class="cls-1" x="625.13" y="318.62" width="33.13" height="16.85"/>
  <line class="cls-1" x1="630.51" y1="341.61" x2="652.11" y2="341.61"/>
  <rect class="cls-1" x="629.55" y="312.84" width="23.53" height="18.73"/>
  <rect class="cls-1" x="629.55" y="309.25" width="23.53" height="18.73"/>
  <g>
    <polygon class="cls-1" points="796.9 445.09 783.26 473.26 811.26 473.26 796.9 445.09"/>
    <polygon class="cls-1" points="791.15 417.25 796.9 445.09 783.26 473.26 777.7 447.05 791.15 417.25"/>
    <polygon class="cls-1" points="791.15 417.25 796.9 445.09 811.26 473.26 808.39 446.09 791.15 417.25"/>
  </g>
  <g>
    <polygon class="cls-1" points="839.14 376.13 831.33 392.25 847.35 392.25 839.14 376.13"/>
    <polygon class="cls-1" points="835.85 360.21 839.14 376.13 831.33 392.25 828.16 377.25 835.85 360.21"/>
    <polygon class="cls-1" points="835.85 360.21 839.14 376.13 847.35 392.25 845.71 376.7 835.85 360.21"/>
  </g>
  <g>
    <polygon class="cls-1" points="920.94 376.03 913.14 392.15 929.16 392.15 920.94 376.03"/>
    <polygon class="cls-1" points="917.66 360.11 920.94 376.03 913.14 392.15 909.96 377.16 917.66 360.11"/>
    <polygon class="cls-1" points="917.66 360.11 920.94 376.03 929.16 392.15 927.51 376.61 917.66 360.11"/>
  </g>
  <g>
    <polygon class="cls-1" points="1000.93 375.94 993.13 392.05 1009.15 392.05 1000.93 375.94"/>
    <polygon class="cls-1" points="997.65 360.02 1000.93 375.94 993.13 392.05 989.96 377.06 997.65 360.02"/>
    <polygon class="cls-1" points="997.65 360.02 1000.93 375.94 1009.15 392.05 1007.51 376.51 997.65 360.02"/>
  </g>
  <polygon class="cls-1" points="887.49 446.94 873.84 475.11 901.85 475.11 887.49 446.94"/>
  <polygon class="cls-1" points="881.74 419.11 887.49 446.94 873.84 475.11 868.29 448.9 881.74 419.11"/>
  <polygon class="cls-1" points="881.74 419.11 887.49 446.94 901.85 475.11 898.98 447.94 881.74 419.11"/>
  <polygon class="cls-1" points="966.42 446.94 952.78 475.11 980.78 475.11 966.42 446.94"/>
  <polygon class="cls-1" points="960.68 419.11 966.42 446.94 952.78 475.11 947.23 448.9 960.68 419.11"/>
  <polygon class="cls-1" points="960.68 419.11 966.42 446.94 980.78 475.11 977.91 447.94 960.68 419.11"/>
  <polygon class="cls-1" points="1045.35 446.94 1031.71 475.11 1059.71 475.11 1045.35 446.94"/>
  <polygon class="cls-1" points="1039.61 419.11 1045.35 446.94 1031.71 475.11 1026.16 448.9 1039.61 419.11"/>
  <polygon class="cls-1" points="1039.61 419.11 1045.35 446.94 1059.71 475.11 1056.84 447.94 1039.61 419.11"/>
  <path class="cls-1" d="M815.87,300.53s0,5.2,3.96,6.93,9.9,0,9.9,0l6.12-28.8-18.36-6.05-1.62,27.92Z"/>
  <polygon class="cls-1" points="812.16 257.22 819.58 278.66 842.84 278.66 835.85 257.22 812.16 257.22"/>
  <polygon class="cls-1" points="835.21 331.82 854.14 329.47 844.18 313 827.24 315.1 835.21 331.82"/>
  <polygon class="cls-1" points="846.73 330.39 841.91 346.92 830.25 347.05 835.21 331.82 846.73 330.39"/>
  <polygon class="cls-1" points="829.22 319.24 826.41 330.82 830.25 347.05 835.21 331.82 829.22 319.24"/>
  <g>
    <polygon class="cls-1" points="838.13 325.44 848.8 324.11 843.19 314.82 833.63 316.01 838.13 325.44"/>
    <polygon class="cls-1" points="848.8 324.11 847.53 326.75 836.85 328.08 832.36 318.64 833.63 316.01 838.13 325.44 848.8 324.11"/>
    <line class="cls-1" x1="838.13" y1="325.44" x2="836.85" y2="328.08"/>
  </g>
  <polygon class="cls-1" points="854.14 329.47 852.42 332.53 834.33 334.54 827.08 319.51 827.24 315.1 835.21 331.82 854.14 329.47"/>
  <path class="cls-1" d="M463.01,396.49h9.13s3.04-8.91,14.71-8.27,14.2,8.27,14.2,8.27h8.11l-3.55,48.77h-8.11s-8.62-3.16-18.76-3.16-15.72,3.16-15.72,3.16h-6.09l6.09-48.77Z"/>
  <path class="cls-1" d="M599.71,395.55l9.12-.49s2.57-9.05,14.25-9.04,14.62,7.51,14.62,7.51l8.1-.43-.95,48.89-8.1.43s-8.78-2.7-18.91-2.16c-10.13.54-15.53,3.99-15.53,3.99l-6.08.32,3.48-49.02Z"/>
  <g>
    <polygon class="cls-1" points="110.37 545.76 90.47 545.76 74.44 519 94.33 519 110.37 545.76"/>
    <polygon class="cls-1" points="94.33 519 74.44 519 58.4 492.23 78.3 492.23 94.33 519"/>
    <polygon class="cls-1" points="74.44 519 54.55 519 38.51 492.23 58.4 492.23 74.44 519"/>
    <polygon class="cls-1" points="90.47 545.76 70.58 545.76 54.55 519 74.44 519 90.47 545.76"/>
  </g>
  <g>
    <polygon class="cls-1" points="177.31 545.77 157.41 545.77 141.38 519.01 161.27 519.01 177.31 545.77"/>
    <polygon class="cls-1" points="161.27 519.01 141.38 519.01 125.34 492.24 145.24 492.24 161.27 519.01"/>
    <polygon class="cls-1" points="141.38 519.01 121.49 519.01 105.45 492.24 125.34 492.24 141.38 519.01"/>
    <polygon class="cls-1" points="157.41 545.77 137.52 545.77 121.49 519.01 141.38 519.01 157.41 545.77"/>
  </g>
  <g>
    <polygon class="cls-1" points="143.52 601.28 123.96 601.86 108.44 575.94 128.33 575.94 143.52 601.28"/>
    <polygon class="cls-1" points="128.33 575.94 108.44 575.94 92.4 549.17 112.3 549.17 128.33 575.94"/>
    <polygon class="cls-1" points="108.44 575.94 88.55 575.94 72.51 549.17 92.4 549.17 108.44 575.94"/>
    <polygon class="cls-1" points="123.96 601.86 104.28 602.19 88.55 575.94 108.44 575.94 123.96 601.86"/>
  </g>
  <g>
    <polygon class="cls-1" points="210.44 599.73 191.41 600.06 175.38 575.95 195.27 575.95 210.44 599.73"/>
    <polygon class="cls-1" points="195.27 575.95 175.38 575.95 159.34 549.18 179.24 549.18 195.27 575.95"/>
    <polygon class="cls-1" points="175.38 575.95 155.49 575.95 139.45 549.18 159.34 549.18 175.38 575.95"/>
    <polygon class="cls-1" points="191.41 600.06 171.89 600.63 155.49 575.95 175.38 575.95 191.41 600.06"/>
  </g>
  <polygon class="cls-1" points="334.9 584.59 297.14 584.59 284.75 537.17 322.51 537.17 334.9 584.59"/>
  <polygon class="cls-1" points="321.13 545.92 283.37 545.92 284.75 537.17 322.51 537.17 321.13 545.92"/>
  <polygon class="cls-1" points="400.12 584.59 362.36 584.59 349.97 537.17 387.72 537.17 400.12 584.59"/>
  <polygon class="cls-1" points="386.66 545.92 348.9 545.92 349.97 537.17 387.72 537.17 386.66 545.92"/>
  <polygon class="cls-1" points="458.08 584.59 420.33 584.59 413.06 537.17 452.46 537.17 458.08 584.59"/>
  <polygon class="cls-1" points="450.81 545.92 413.06 545.92 413.06 537.17 452.46 537.17 450.81 545.92"/>
  <polygon class="cls-1" points="522.27 584.59 484.51 584.59 480.43 537.17 519.98 537.17 522.27 584.59"/>
  <polygon class="cls-1" points="518.87 545.92 481.11 545.92 480.43 537.17 519.98 537.17 518.87 545.92"/>
  <polygon class="cls-1" points="580.16 584.59 542.4 584.59 538.33 537.17 577.87 537.17 580.16 584.59"/>
  <polygon class="cls-1" points="577.37 545.92 539.61 545.92 538.33 537.17 577.87 537.17 577.37 545.92"/>
  <polygon class="cls-1" points="644.24 584.59 606.49 584.59 604.78 537.17 641.95 537.17 644.24 584.59"/>
  <polygon class="cls-1" points="642.31 545.92 604.56 545.92 604.78 537.17 641.95 537.17 642.31 545.92"/>
  <polygon class="cls-1" points="706.17 583.28 668.42 583.28 666.71 535.85 703.88 535.85 706.17 583.28"/>
  <polygon class="cls-1" points="578.45 527.46 540.7 527.46 537.76 487.35 577.31 487.35 578.45 527.46"/>
  <polygon class="cls-1" points="642.53 527.46 604.78 527.46 604.21 487.35 641.39 487.35 642.53 527.46"/>
  <polygon class="cls-1" points="704.46 526.14 666.71 526.14 666.14 487.35 703.32 487.35 704.46 526.14"/>
  <polygon class="cls-1" points="704.46 545.46 666.71 545.46 666.71 535.85 703.88 535.85 704.46 545.46"/>
  <polygon class="cls-1" points="686.52 14.37 710.83 .44 732.28 14.37 732.28 24.05 766.64 24.05 765.09 48.72 689.59 44.74 686.52 14.37"/>
  <polygon class="cls-1" points="814.47 14.15 794.91 26.83 796.61 50.38 817.55 34.24 814.47 14.15"/>
  <polygon class="cls-1" points="828.82 25.55 814.47 14.15 817.55 34.24 828.82 25.55"/>
  <polygon class="cls-1" points="402.42 226.46 397.9 236.78 410.59 236.78 402.42 226.46"/>
  <polygon class="cls-1" points="403.13 217.65 402.42 226.46 410.59 236.78 410.59 225.03 403.13 217.65"/>
  <polygon class="cls-2" points="397.9 236.78 403.13 217.65 402.42 226.46 397.9 236.78"/>
  <polygon class="cls-1" points="492.63 224.76 488.11 235.08 500.8 235.08 492.63 224.76"/>
  <polygon class="cls-1" points="493.35 215.95 492.63 224.76 500.8 235.08 500.8 223.33 493.35 215.95"/>
  <polygon class="cls-2" points="488.11 235.08 493.35 215.95 492.63 224.76 488.11 235.08"/>
  <polygon class="cls-1" points="601.17 225.7 596.65 236.02 609.34 236.02 601.17 225.7"/>
  <polygon class="cls-1" points="601.89 216.89 601.17 225.7 609.34 236.02 609.34 224.27 601.89 216.89"/>
  <polygon class="cls-2" points="596.65 236.02 601.89 216.89 601.17 225.7 596.65 236.02"/>
  <polygon class="cls-1" points="360.12 275.61 355.59 285.94 368.28 285.94 360.12 275.61"/>
  <polygon class="cls-1" points="360.83 266.8 360.12 275.61 368.28 285.94 368.28 274.18 360.83 266.8"/>
  <polygon class="cls-2" points="355.59 285.94 360.83 266.8 360.12 275.61 355.59 285.94"/>
  <polygon class="cls-1" points="449.72 275.61 445.19 285.94 457.88 285.94 449.72 275.61"/>
  <polygon class="cls-1" points="450.43 266.8 449.72 275.61 457.88 285.94 457.88 274.18 450.43 266.8"/>
  <polygon class="cls-2" points="445.19 285.94 450.43 266.8 449.72 275.61 445.19 285.94"/>
  <polygon class="cls-1" points="543.84 273.11 539.32 283.43 552.01 283.43 543.84 273.11"/>
  <polygon class="cls-1" points="544.55 264.3 543.84 273.11 552.01 283.43 552.01 271.68 544.55 264.3"/>
  <polygon class="cls-2" points="539.32 283.43 544.55 264.3 543.84 273.11 539.32 283.43"/>
  <polygon class="cls-1" points="641.41 273.11 636.88 283.43 649.57 283.43 641.41 273.11"/>
  <polygon class="cls-1" points="642.12 264.3 641.41 273.11 649.57 283.43 649.57 271.68 642.12 264.3"/>
  <polygon class="cls-2" points="636.88 283.43 642.12 264.3 641.41 273.11 636.88 283.43"/>
  <polygon class="cls-1" points="746.85 273.11 742.32 283.43 755.01 283.43 746.85 273.11"/>
  <polygon class="cls-1" points="747.56 264.3 746.85 273.11 755.01 283.43 755.01 271.68 747.56 264.3"/>
  <polygon class="cls-2" points="742.32 283.43 747.56 264.3 746.85 273.11 742.32 283.43"/>
  <polygon class="cls-1" points="789.33 224 784.81 234.33 797.5 234.33 789.33 224"/>
  <polygon class="cls-1" points="790.05 215.19 789.33 224 797.5 234.33 797.5 222.57 790.05 215.19"/>
  <polygon class="cls-2" points="784.81 234.33 790.05 215.19 789.33 224 784.81 234.33"/>
  <polygon class="cls-1" points="872.02 226.46 867.5 236.78 880.19 236.78 872.02 226.46"/>
  <polygon class="cls-1" points="872.74 217.65 872.02 226.46 880.19 236.78 880.19 225.03 872.74 217.65"/>
  <polygon class="cls-2" points="867.5 236.78 872.74 217.65 872.02 226.46 867.5 236.78"/>
  <polygon class="cls-1" points="111.34 320.78 132.49 309.12 166.82 319.73 111.34 320.78"/>
</svg>