<?xml version="1.0" encoding="UTF-8"?>
<svg id="office" xmlns="http://www.w3.org/2000/svg" viewBox="0 0 197.47 114.19">
  <defs>
    <style>
      .cls-1 {
        fill: #fff;
        stroke: #ed1c24;
        stroke-miterlimit: 10;
        stroke-width: .5px;
      }
    </style>
  </defs>
  <path class="cls-1" d="M15.4,12.22h-5.86c.22-.05.44-.08.67-.08h4.52c.23,0,.45.03.67.08Z"/>
  <path class="cls-1" d="M17.72,15.13c0,.83-.33,1.57-.88,2.11-.54.54-1.29.88-2.11.88h-4.52c-1.65,0-2.99-1.34-2.99-2.99,0-.83.33-1.57.88-2.11.39-.39.89-.67,1.44-.8.22-.05.44-.08.67-.08h4.52c.23,0,.45.03.67.08,1.33.3,2.32,1.49,2.32,2.91Z"/>
  <path class="cls-1" d="M18.72,42.14h-5.22c-.05,0-.1,0-.15-.01h5.21c.05,0,.11,0,.16.01Z"/>
  <rect class="cls-1" x="187.49" y="24.19" width="8.4" height="5.98" rx="2.99" ry="2.99"/>
  <path class="cls-1" d="M8.43,48.12H2.57c.22-.05.44-.08.67-.08h4.52c.23,0,.45.03.67.08Z"/>
  <path class="cls-1" d="M10.75,51.03c0,.83-.33,1.57-.88,2.11-.54.54-1.29.88-2.11.88H3.24c-1.65,0-2.99-1.34-2.99-2.99,0-.83.33-1.57.88-2.11.39-.39.89-.67,1.44-.8.22-.05.44-.08.67-.08h4.52c.23,0,.45.03.67.08,1.33.3,2.32,1.49,2.32,2.91Z"/>
  <path class="cls-1" d="M191.64,72.05h-20.03c-1.65,0-2.99-1.34-2.99-2.99,0-.82.34-1.57.88-2.11.54-.55,1.28-.88,2.11-.88.81-.01,1.54-.34,2.07-.88.54-.54.88-1.29.88-2.11,0-1.66-1.34-3-2.99-3h-6.61c-1.66,0-3-1.34-3-2.99,0-.83.34-1.57.88-2.11.54-.54,1.29-.88,2.12-.88h6.61c.83,0,1.57-.34,2.11-.88.54-.54.88-1.28.88-2.11,0-1.65-1.34-2.99-2.99-2.99h-4.43c-1.66,0-3-1.34-3-3,0-.82.34-1.57.88-2.11.54-.55,1.29-.88,2.12-.88h16.2c.82,0,1.57-.33,2.11-.88.55-.54.88-1.29.88-2.11,0-1.65-1.34-2.99-2.99-2.99h-4.76c-1.65,0-2.99-1.34-2.99-2.99,0-.82.34-1.57.88-2.11.54-.55,1.28-.88,2.11-.88.81-.01,1.54-.34,2.07-.88.54-.54.88-1.29.88-2.11,0-1.66-1.34-3-2.99-3h-6.61c-1.66,0-3-1.34-3-2.99,0-.83.34-1.57.88-2.11.54-.54,1.29-.88,2.12-.88h6.61c.83,0,1.57-.34,2.11-.88.54-.54.88-1.28.88-2.11,0-1.65-1.34-2.99-2.99-2.99h-4.43c-1.66,0-3-1.34-3-3,0-.82.34-1.57.88-2.11.54-.55,1.29-.88,2.12-.88h16.2c.82,0,1.57-.33,2.11-.88.55-.54.88-1.29.88-2.11,0-1.65-1.34-2.99-2.99-2.99H19.8c-.83,0-1.57.33-2.11.88-.54.54-.88,1.29-.88,2.11,0,1.65,1.34,2.99,2.99,2.99h5.73c1.65,0,2.99,1.34,2.99,2.99,0,.83-.33,1.58-.88,2.12-.54.54-1.29.88-2.11.88h-1.59c-.83,0-1.57.34-2.11.88-.54.54-.88,1.28-.88,2.11,0,1.65,1.34,2.99,2.99,2.99h7.89c1.65,0,2.99,1.34,2.99,2.99,0,.83-.33,1.57-.88,2.11-.54.54-1.29.88-2.11.88H15.46c-.83,0-1.57.34-2.11.88-.54.54-.88,1.29-.88,2.12,0,1.65,1.34,2.99,2.99,2.99h18.12c1.66,0,2.99,1.34,2.99,2.99,0,.82-.33,1.57-.87,2.11-.54.55-1.29.88-2.12.88H13.5c-.83,0-1.57.33-2.11.88-.54.54-.88,1.29-.88,2.12,0,1.6,1.26,2.91,2.84,2.98h5.21c.05,0,.11,0,.16.01,1.58.08,2.83,1.38,2.83,2.98,0,.83-.33,1.58-.88,2.12-.54.54-1.29.88-2.11.88h-1.59c-.83,0-1.57.34-2.11.88-.54.54-.88,1.28-.88,2.11,0,1.65,1.34,2.99,2.99,2.99h7.89c1.65,0,2.99,1.34,2.99,2.99,0,.83-.33,1.57-.88,2.11-.54.54-1.29.88-2.11.88H8.49c-.83,0-1.57.34-2.11.88-.54.54-.88,1.29-.88,2.12,0,1.65,1.34,2.99,2.99,2.99h18.12c1.66,0,2.99,1.34,2.99,2.99,0,.82-.33,1.57-.87,2.11-.54.55-1.29.88-2.12.88h-5.48c-.83,0-1.57.33-2.11.88-.54.54-.88,1.29-.88,2.11,0,1.65,1.34,2.99,2.99,2.99h5.73c1.65,0,2.99,1.34,2.99,2.99,0,.83-.33,1.58-.88,2.12-.54.54-1.29.88-2.11.88h-1.59c-.83,0-1.57.34-2.11.88-.54.54-.88,1.28-.88,2.11,0,1.65,1.34,2.99,2.99,2.99h7.89c1.65,0,2.99,1.34,2.99,2.99,0,.83-.33,1.57-.88,2.11-.54.54-1.29.88-2.11.88h-16.37c-.83,0-1.57.34-2.11.88-.54.54-.88,1.29-.88,2.12,0,1.65,1.34,2.99,2.99,2.99h18.12c1.66,0,2.99,1.34,2.99,2.99,0,.82-.33,1.57-.87,2.11-.54.55-1.29.88-2.12.88h-4.31c-.82,0-1.57.33-2.11.88-.55.54-.88,1.29-.88,2.11,0,1.65,1.34,2.99,2.99,2.99h153.43c.83,0,1.58-.33,2.12-.88.55-.54.88-1.29.88-2.11,0-1.65-1.34-2.99-3-2.99h-4.12c-1.65,0-2.99-1.34-2.99-2.99,0-.82.34-1.57.88-2.11.54-.55,1.28-.88,2.11-.88.81-.01,1.54-.34,2.07-.88.54-.54.88-1.29.88-2.11,0-1.66-1.34-3-2.99-3h-6.61c-1.66,0-3-1.34-3-2.99,0-.83.34-1.57.88-2.11.54-.54,1.29-.88,2.12-.88h6.61c.83,0,1.57-.34,2.11-.88.54-.54.88-1.28.88-2.11,0-1.65-1.34-2.99-2.99-2.99h-4.43c-1.66,0-3-1.34-3-3,0-.82.34-1.57.88-2.11.54-.55,1.29-.88,2.12-.88h16.2c.82,0,1.57-.33,2.11-.88.55-.54.88-1.29.88-2.11,0-1.65-1.34-2.99-2.99-2.99ZM130.52,27.18c0,.82-.33,1.57-.88,2.11-.54.55-1.29.88-2.11.88h-31.5c-1.65,0-2.99-1.34-2.99-2.99,0-.83.33-1.58.88-2.12.54-.54,1.29-.88,2.11-.88h31.5c1.65,0,2.99,1.34,2.99,3ZM123.55,63.08c0,.82-.33,1.57-.88,2.11-.54.55-1.29.88-2.11.88h-31.5c-1.65,0-2.99-1.34-2.99-2.99,0-.83.33-1.58.88-2.12.54-.54,1.29-.88,2.11-.88h31.5c1.65,0,2.99,1.34,2.99,3ZM74.89,7.11c.54-.55,1.28-.88,2.11-.88h35.17c1.65,0,2.99,1.34,2.99,2.99,0,.83-.33,1.58-.88,2.12-.54.54-1.29.88-2.11.88h-35.17c-1.65,0-2.99-1.34-2.99-3,0-.82.34-1.57.88-2.11ZM53.84,19.08c.54-.54,1.29-.88,2.11-.88h6.62c1.65,0,2.99,1.34,2.99,2.99,0,.83-.33,1.57-.88,2.11-.54.54-1.29.88-2.11.88h-6.62c-1.65,0-2.99-1.34-2.99-2.99,0-.83.33-1.57.88-2.11ZM45.99,57.09c0-.83.33-1.57.88-2.11.54-.54,1.29-.88,2.11-.88h6.62c1.65,0,2.99,1.34,2.99,2.99,0,.83-.33,1.57-.88,2.11-.54.54-1.29.88-2.11.88h-6.62c-1.65,0-2.99-1.34-2.99-2.99ZM66.01,95.1c-.54.54-1.29.88-2.11.88h-6.62c-1.65,0-2.99-1.34-2.99-2.99,0-.83.33-1.57.88-2.11.54-.54,1.29-.88,2.11-.88h6.62c1.65,0,2.99,1.34,2.99,2.99,0,.83-.33,1.57-.88,2.11ZM67.04,45.12c0-.82.34-1.57.88-2.11.54-.55,1.28-.88,2.11-.88h35.17c1.65,0,2.99,1.34,2.99,2.99,0,.83-.33,1.58-.88,2.12-.54.54-1.29.88-2.11.88h-35.17c-1.65,0-2.99-1.34-2.99-3ZM75.34,81.02c0-.82.34-1.57.88-2.11.54-.55,1.28-.88,2.11-.88h35.17c1.65,0,2.99,1.34,2.99,2.99,0,.83-.33,1.58-.88,2.12-.54.54-1.29.88-2.11.88h-35.17c-1.65,0-2.99-1.34-2.99-3ZM130.97,101.09c-.54.55-1.29.88-2.11.88h-31.5c-1.65,0-2.99-1.34-2.99-2.99,0-.83.33-1.58.88-2.12.54-.54,1.29-.88,2.11-.88h31.5c1.65,0,2.99,1.34,2.99,3,0,.82-.33,1.57-.88,2.11Z"/>
  <rect class="cls-1" x="3.54" y="72.05" width="12.6" height="5.98" rx="2.99" ry="2.99"/>
  <rect class="cls-1" x="180.52" y="60.09" width="8.4" height="5.98" rx="2.99" ry="2.99"/>
  <path class="cls-1" d="M16.73,84.02h-5.86c.22-.05.44-.08.67-.08h4.52c.23,0,.45.03.67.08Z"/>
  <path class="cls-1" d="M19.05,86.93c0,.83-.33,1.57-.88,2.11-.54.54-1.29.88-2.11.88h-4.52c-1.65,0-2.99-1.34-2.99-2.99,0-.83.33-1.57.88-2.11.39-.39.89-.67,1.44-.8.22-.05.44-.08.67-.08h4.52c.23,0,.45.03.67.08,1.33.3,2.32,1.49,2.32,2.91Z"/>
  <rect class="cls-1" x="11.84" y="107.96" width="12.6" height="5.98" rx="2.99" ry="2.99"/>
  <rect class="cls-1" x="188.82" y="95.99" width="8.4" height="5.98" rx="2.99" ry="2.99"/>
</svg>