<?xml version="1.0" encoding="UTF-8"?>
<svg id="printing_press" xmlns="http://www.w3.org/2000/svg" viewBox="0 0 1080 1080">
  <defs>
    <style>
      .cls-1 {
        fill: #fff;
        stroke: #ed1c24;
        stroke-miterlimit: 10;
        stroke-width: .75px;
      }
    </style>
  </defs>
  <polygon class="cls-1" points="307.82 363.44 112.93 399.99 112.93 372.9 307.82 336.35 307.82 363.44"/>
  <polyline class="cls-1" points="697.89 748.67 891.07 692.45 311.06 481.24 104.34 502.66 697.89 748.67"/>
  <polygon class="cls-1" points="555.17 987.06 592.69 1009.73 715.42 956.58 679.45 940.16 555.17 987.06"/>
  <polygon class="cls-1" points="538.26 1019.18 586.66 1053.86 733.94 986.67 715.42 956.58 592.69 1009.73 555.17 987.06 538.26 1019.18"/>
  <polygon class="cls-1" points="294.48 927.68 .07 759.02 21.75 734.85 95.85 777.18 95.87 777.18 276.98 880.18 294.48 927.68"/>
  <polygon class="cls-1" points="544.69 853.5 500.52 867.66 483.5 820 524.7 807.64 544.69 853.5"/>
  <polygon class="cls-1" points="500.52 867.66 239.48 739.28 286.17 726.97 483.5 820 500.52 867.66"/>
  <polygon class="cls-1" points="286.17 726.97 239.48 739.28 239.45 739.28 236.36 737.76 257.87 713.77 258.03 713.59 258.2 713.67 286.17 726.97"/>
  <polygon class="cls-1" points="452.01 843.8 452.01 805.34 279.75 845.77 302.72 880.18 452.01 843.8"/>
  <polygon class="cls-1" points="239.45 739.28 138.06 766.04 318.66 867.66 276.98 880.18 95.87 777.18 95.85 777.18 21.75 734.99 68.12 722.58 114.69 747.82 258.2 713.67 222.12 693.99 265.45 686.25 328.59 715.77 328.61 715.77 524.7 807.64 483.04 820.15 286.38 726.92 286.17 726.97 239.48 739.28 239.45 739.28"/>
  <polygon class="cls-1" points="286 762.28 286 727.04 138.3 766.17 183.14 790.99 286 762.28"/>
  <polygon class="cls-1" points="493.8 793.16 452.01 805.34 452.01 58.19 473.32 62.4 493.8 793.16"/>
  <polygon class="cls-1" points="237.41 857.48 189.52 830.25 189.52 81.68 237.41 65.71 237.41 857.48"/>
  <polygon class="cls-1" points="452.01 805.34 404.76 783.18 404.76 69.73 452.01 53.92 452.01 805.34"/>
  <polygon class="cls-1" points="279.74 845.77 237.41 857.48 237.58 64.06 255.98 66.52 267.35 439.8 267.99 460 268.85 488.27 279.74 845.77"/>
  <polygon class="cls-1" points="134.5 49.05 205.1 64.06 528.26 34.83 424.91 26.1 134.5 49.05"/>
  <polygon class="cls-1" points="134.5 49.05 134.5 76.82 205.1 94.09 205.1 64.06 134.5 49.05"/>
  <polygon class="cls-1" points="528.26 59.44 205.1 94.09 205.1 64.06 528.26 34.83 528.26 59.44"/>
  <polygon class="cls-1" points="259.32 176.27 404.76 164.49 452.38 176.33 259.9 196.07 259.32 176.27"/>
  <polygon class="cls-1" points="404.76 783.18 279.77 811.72 279.75 845.77 452.01 805.34 404.76 783.18"/>
  <polygon class="cls-1" points="338.67 913.49 294.48 927.68 276.98 880.18 318.66 867.66 338.67 913.49"/>
  <polygon class="cls-1" points="104.34 777.59 83.62 766.36 83.62 361.65 104.34 367.44 104.34 777.59"/>
  <polygon class="cls-1" points="114.69 764.11 104.34 777.59 104.34 367.44 113.18 360.07 114.69 764.11"/>
  <polygon class="cls-1" points="597.02 999.75 576.29 988.52 576.29 739.28 597.02 745.07 597.02 999.75"/>
  <polygon class="cls-1" points="607.37 986.26 597.02 999.75 597.02 744.88 605.86 737.52 607.37 986.26"/>
  <polygon class="cls-1" points="689.82 963.03 669.09 951.8 669.09 746.37 689.82 754.46 689.82 963.03"/>
  <polygon class="cls-1" points="700.17 949.54 689.82 963.03 689.82 754.46 697.89 758.32 700.17 949.54"/>
  <path class="cls-1" d="M83.62,361.65s11.48-4.08,11.48-11.76,7.7-6.6,7.7,0c0,8.75,10.39,10.18,10.39,10.18l-8.84,7.37-20.73-5.79Z"/>
  <circle class="cls-1" cx="99.2" cy="338.77" r="11.12"/>
  <polygon class="cls-1" points="328.55 739.28 307.82 728.05 307.82 323.34 328.55 329.13 328.55 739.28"/>
  <polygon class="cls-1" points="338.9 725.79 328.55 739.28 328.55 329.13 337.39 321.76 338.9 725.79"/>
  <path class="cls-1" d="M307.82,323.34s11.48-4.08,11.48-11.76,7.7-6.6,7.7,0c0,8.75,10.39,10.18,10.39,10.18l-8.84,7.37-20.73-5.79Z"/>
  <circle class="cls-1" cx="323.41" cy="300.46" r="11.12"/>
  <line class="cls-1" x1="592.69" y1="1009.73" x2="586.66" y2="1053.86"/>
  <g>
    <polygon class="cls-1" points="462.79 986.39 413.81 953.04 473.91 882.91 547.27 919.93 462.79 986.39"/>
    <polygon class="cls-1" points="413.81 964 462.79 997.41 547.27 948.26 547.27 919.93 462.79 986.39 413.81 953.04 413.81 964"/>
  </g>
  <path class="cls-1" d="M451.98,453.21l-134.99,29.19-49-22.4-.63-20.19c9.98-3.22,24.6-7.83,35.85-10.92,4.86-1.37,9.07-2.41,12.03-2.96,6.06-1.11,17.3-1.9,27.85-2.41,12.95-.66,24.86-.89,24.86-.89l84.04,30.58Z"/>
  <path class="cls-1" d="M398.04,438.3l-80.06,14.21c.97-.35,11-4.08,18.53-14.67,4.68-6.58,8.42-15.78,8.42-28.47v-76.25l28.53-9.28v78.21c0,34.84,24.59,36.25,24.59,36.25Z"/>
  <path class="cls-1" d="M344.92,333.13v76.25c0,12.69-3.73,21.89-8.42,28.47-7.53,10.58-17.56,14.32-18.53,14.67-.06.02-.08.02-.08.02,0,0-21.66-7.51-31.44-12.13,29.29-1.61,31.44-31.03,31.44-31.03v-84.11l27.02,7.86Z"/>
  <path class="cls-1" d="M316.99,482.4s24.66-18.82,60.36-26.61c35.69-7.79,74.63-2.6,74.63-2.6v22.07l-134.99,33.75v-26.61Z"/>
  <polygon class="cls-1" points="316.99 482.39 316.99 509.02 268.85 488.27 267.99 460 316.99 482.39"/>
  <ellipse class="cls-1" cx="345.68" cy="326.09" rx="27.78" ry="7.05"/>
  <path class="cls-1" d="M361.65,321.25s-1.58,6.52-15.05,6.46c-15.14-.07-16.9-6.46-16.9-6.46v-70.31h31.94v70.31Z"/>
  <g>
    <path class="cls-1" d="M505.78,345.07l-153.75-47.49c-.9-.28-1.51-1.11-1.51-2.04v-5.47c0-2.73,2.64-4.67,5.24-3.87l150.02,46.34v12.53Z"/>
    <path class="cls-1" d="M505.78,332.54s21.55-.18,40.63,5.59c19.09,5.77,126.05,46.6,126.05,46.6,0,0,2.62,7.8-6.13,6.35-32.34-5.34-118.06-27.14-134.13-32.45-11.39-3.76-22.79-7.91-26.43-13.56-.11.15-2.1-4.82-2.14-7.36-.06-3.56,2.14-5.17,2.14-5.17Z"/>
    <circle class="cls-1" cx="671.79" cy="388.34" r="9.98"/>
  </g>
  <polygon class="cls-1" points="104.34 558.84 189.26 596.24 189.77 537.16 104.34 502.66 104.34 558.84"/>
  <polygon class="cls-1" points="311.06 535.51 530.61 491.66 773.14 582.79 570.34 639.86 311.06 535.51"/>
  <g>
    <polygon class="cls-1" points="532.3 528.59 518.72 530.95 507.7 526.54 521.28 524.19 532.3 528.59"/>
    <polygon class="cls-1" points="532.3 529.61 532.3 537.82 518.72 540.2 518.72 531.99 532.3 529.61"/>
    <polygon class="cls-1" points="518.72 531.99 518.72 540.2 507.7 535.76 507.7 527.58 518.72 531.99"/>
  </g>
  <g>
    <polygon class="cls-1" points="550.11 535.36 536.53 537.72 525.51 533.31 539.09 530.95 550.11 535.36"/>
    <polygon class="cls-1" points="550.11 536.37 550.11 544.58 536.53 546.96 536.53 538.75 550.11 536.37"/>
    <polygon class="cls-1" points="536.53 538.75 536.53 546.96 525.51 542.53 525.51 534.35 536.53 538.75"/>
  </g>
  <g>
    <polygon class="cls-1" points="567.92 542.12 554.34 544.48 543.32 540.07 556.9 537.72 567.92 542.12"/>
    <polygon class="cls-1" points="567.92 543.14 567.92 551.35 554.34 553.73 554.34 545.52 567.92 543.14"/>
    <polygon class="cls-1" points="554.34 545.52 554.34 553.73 543.32 549.29 543.32 541.11 554.34 545.52"/>
  </g>
  <g>
    <polygon class="cls-1" points="585.74 548.89 572.16 551.25 561.13 546.84 574.71 544.48 585.74 548.89"/>
    <polygon class="cls-1" points="585.74 549.9 585.74 558.11 572.16 560.49 572.16 552.28 585.74 549.9"/>
    <polygon class="cls-1" points="572.16 552.28 572.16 560.49 561.13 556.06 561.13 547.88 572.16 552.28"/>
  </g>
  <g>
    <polygon class="cls-1" points="603.55 555.65 589.97 558.01 578.95 553.6 592.53 551.25 603.55 555.65"/>
    <polygon class="cls-1" points="603.55 556.67 603.55 564.88 589.97 567.26 589.97 559.05 603.55 556.67"/>
    <polygon class="cls-1" points="589.97 559.05 589.97 567.26 578.95 562.82 578.95 554.64 589.97 559.05"/>
  </g>
  <g>
    <polygon class="cls-1" points="621.36 562.42 607.78 564.78 596.76 560.37 610.34 558.01 621.36 562.42"/>
    <polygon class="cls-1" points="621.36 563.43 621.36 571.64 607.78 574.02 607.78 565.81 621.36 563.43"/>
    <polygon class="cls-1" points="607.78 565.81 607.78 574.02 596.76 569.59 596.76 561.41 607.78 565.81"/>
  </g>
  <g>
    <polygon class="cls-1" points="639.17 569.18 625.59 571.54 614.57 567.13 628.15 564.78 639.17 569.18"/>
    <polygon class="cls-1" points="639.17 570.2 639.17 578.41 625.59 580.79 625.59 572.58 639.17 570.2"/>
    <polygon class="cls-1" points="625.59 572.58 625.59 580.79 614.57 576.35 614.57 568.17 625.59 572.58"/>
  </g>
  <g>
    <polygon class="cls-1" points="656.98 575.95 643.4 578.31 632.38 573.9 645.96 571.54 656.98 575.95"/>
    <polygon class="cls-1" points="656.98 576.96 656.98 585.17 643.4 587.55 643.4 579.34 656.98 576.96"/>
    <polygon class="cls-1" points="643.4 579.34 643.4 587.55 632.38 583.12 632.38 574.94 643.4 579.34"/>
  </g>
  <g>
    <polygon class="cls-1" points="674.79 582.71 661.21 585.07 650.19 580.66 663.77 578.31 674.79 582.71"/>
    <polygon class="cls-1" points="674.79 583.73 674.79 591.94 661.21 594.32 661.21 586.11 674.79 583.73"/>
    <polygon class="cls-1" points="661.21 586.11 661.21 594.32 650.19 589.88 650.19 581.7 661.21 586.11"/>
  </g>
  <g>
    <polygon class="cls-1" points="692.61 589.48 679.03 591.84 668 587.43 681.59 585.07 692.61 589.48"/>
    <polygon class="cls-1" points="692.61 590.49 692.61 598.7 679.03 601.08 679.03 592.87 692.61 590.49"/>
    <polygon class="cls-1" points="679.03 592.87 679.03 601.08 668 596.65 668 588.47 679.03 592.87"/>
  </g>
  <g>
    <polygon class="cls-1" points="710.42 596.24 696.84 598.6 685.82 594.19 699.4 591.84 710.42 596.24"/>
    <polygon class="cls-1" points="710.42 597.26 710.42 605.47 696.84 607.85 696.84 599.64 710.42 597.26"/>
    <polygon class="cls-1" points="696.84 599.64 696.84 607.85 685.82 603.41 685.82 595.23 696.84 599.64"/>
  </g>
  <g>
    <polygon class="cls-1" points="513.21 533.22 499.63 535.57 488.61 531.17 502.19 528.81 513.21 533.22"/>
    <polygon class="cls-1" points="513.21 534.23 513.21 542.44 499.63 544.82 499.63 536.61 513.21 534.23"/>
    <polygon class="cls-1" points="499.63 536.61 499.63 544.82 488.61 540.39 488.61 532.2 499.63 536.61"/>
  </g>
  <g>
    <polygon class="cls-1" points="531.02 539.98 517.44 542.34 506.42 537.93 520 535.57 531.02 539.98"/>
    <polygon class="cls-1" points="531.02 541 531.02 549.21 517.44 551.59 517.44 543.38 531.02 541"/>
    <polygon class="cls-1" points="517.44 543.38 517.44 551.59 506.42 547.15 506.42 538.97 517.44 543.38"/>
  </g>
  <g>
    <polygon class="cls-1" points="548.83 546.75 535.25 549.1 524.23 544.7 537.81 542.34 548.83 546.75"/>
    <polygon class="cls-1" points="548.83 547.76 548.83 555.97 535.25 558.35 535.25 550.14 548.83 547.76"/>
    <polygon class="cls-1" points="535.25 550.14 535.25 558.35 524.23 553.92 524.23 545.73 535.25 550.14"/>
  </g>
  <g>
    <polygon class="cls-1" points="566.64 553.51 553.06 555.87 542.04 551.46 555.62 549.1 566.64 553.51"/>
    <polygon class="cls-1" points="566.64 554.53 566.64 562.74 553.06 565.12 553.06 556.91 566.64 554.53"/>
    <polygon class="cls-1" points="553.06 556.91 553.06 565.12 542.04 560.68 542.04 552.5 553.06 556.91"/>
  </g>
  <g>
    <polygon class="cls-1" points="584.46 560.28 570.88 562.63 559.85 558.23 573.43 555.87 584.46 560.28"/>
    <polygon class="cls-1" points="584.46 561.29 584.46 569.5 570.88 571.88 570.88 563.67 584.46 561.29"/>
    <polygon class="cls-1" points="570.88 563.67 570.88 571.88 559.85 567.45 559.85 559.26 570.88 563.67"/>
  </g>
  <g>
    <polygon class="cls-1" points="602.27 567.04 588.69 569.4 577.67 564.99 591.25 562.63 602.27 567.04"/>
    <polygon class="cls-1" points="602.27 568.06 602.27 576.27 588.69 578.65 588.69 570.44 602.27 568.06"/>
    <polygon class="cls-1" points="588.69 570.44 588.69 578.65 577.67 574.21 577.67 566.03 588.69 570.44"/>
  </g>
  <g>
    <polygon class="cls-1" points="620.08 573.81 606.5 576.16 595.48 571.76 609.06 569.4 620.08 573.81"/>
    <polygon class="cls-1" points="620.08 574.82 620.08 583.03 606.5 585.41 606.5 577.2 620.08 574.82"/>
    <polygon class="cls-1" points="606.5 577.2 606.5 585.41 595.48 580.98 595.48 572.79 606.5 577.2"/>
  </g>
  <g>
    <polygon class="cls-1" points="637.89 580.57 624.31 582.93 613.29 578.52 626.87 576.16 637.89 580.57"/>
    <polygon class="cls-1" points="637.89 581.59 637.89 589.8 624.31 592.18 624.31 583.97 637.89 581.59"/>
    <polygon class="cls-1" points="624.31 583.97 624.31 592.18 613.29 587.74 613.29 579.56 624.31 583.97"/>
  </g>
  <g>
    <polygon class="cls-1" points="655.7 587.34 642.12 589.69 631.1 585.29 644.68 582.93 655.7 587.34"/>
    <polygon class="cls-1" points="655.7 588.35 655.7 596.56 642.12 598.94 642.12 590.73 655.7 588.35"/>
    <polygon class="cls-1" points="642.12 590.73 642.12 598.94 631.1 594.51 631.1 586.32 642.12 590.73"/>
  </g>
  <g>
    <polygon class="cls-1" points="673.52 594.1 659.93 596.46 648.91 592.05 662.49 589.69 673.52 594.1"/>
    <polygon class="cls-1" points="673.52 595.12 673.52 603.32 659.93 605.71 659.93 597.5 673.52 595.12"/>
    <polygon class="cls-1" points="659.93 597.5 659.93 605.71 648.91 601.27 648.91 593.09 659.93 597.5"/>
  </g>
  <g>
    <polygon class="cls-1" points="691.33 600.87 677.75 603.22 666.73 598.82 680.31 596.46 691.33 600.87"/>
    <polygon class="cls-1" points="691.33 601.88 691.33 610.09 677.75 612.47 677.75 604.26 691.33 601.88"/>
    <polygon class="cls-1" points="677.75 604.26 677.75 612.47 666.73 608.04 666.73 599.85 677.75 604.26"/>
  </g>
  <g>
    <polygon class="cls-1" points="494.12 537.84 480.54 540.2 469.52 535.79 483.1 533.43 494.12 537.84"/>
    <polygon class="cls-1" points="494.12 538.85 494.12 547.06 480.54 549.45 480.54 541.24 494.12 538.85"/>
    <polygon class="cls-1" points="480.54 541.24 480.54 549.45 469.52 545.01 469.52 536.83 480.54 541.24"/>
  </g>
  <g>
    <polygon class="cls-1" points="511.93 544.61 498.35 546.96 487.33 542.55 500.91 540.2 511.93 544.61"/>
    <polygon class="cls-1" points="511.93 545.62 511.93 553.83 498.35 556.21 498.35 548 511.93 545.62"/>
    <polygon class="cls-1" points="498.35 548 498.35 556.21 487.33 551.78 487.33 543.59 498.35 548"/>
  </g>
  <g>
    <polygon class="cls-1" points="529.74 551.37 516.16 553.73 505.14 549.32 518.72 546.96 529.74 551.37"/>
    <polygon class="cls-1" points="529.74 552.38 529.74 560.59 516.16 562.98 516.16 554.77 529.74 552.38"/>
    <polygon class="cls-1" points="516.16 554.77 516.16 562.98 505.14 558.54 505.14 550.36 516.16 554.77"/>
  </g>
  <g>
    <polygon class="cls-1" points="547.55 558.14 533.97 560.49 522.95 556.08 536.53 553.73 547.55 558.14"/>
    <polygon class="cls-1" points="547.55 559.15 547.55 567.36 533.97 569.74 533.97 561.53 547.55 559.15"/>
    <polygon class="cls-1" points="533.97 561.53 533.97 569.74 522.95 565.31 522.95 557.12 533.97 561.53"/>
  </g>
  <g>
    <polygon class="cls-1" points="565.36 564.9 551.78 567.26 540.76 562.85 554.34 560.49 565.36 564.9"/>
    <polygon class="cls-1" points="565.36 565.91 565.36 574.12 551.78 576.51 551.78 568.3 565.36 565.91"/>
    <polygon class="cls-1" points="551.78 568.3 551.78 576.51 540.76 572.07 540.76 563.89 551.78 568.3"/>
  </g>
  <g>
    <polygon class="cls-1" points="583.18 571.67 569.6 574.02 558.57 569.61 572.16 567.26 583.18 571.67"/>
    <polygon class="cls-1" points="583.18 572.68 583.18 580.89 569.6 583.27 569.6 575.06 583.18 572.68"/>
    <polygon class="cls-1" points="569.6 575.06 569.6 583.27 558.57 578.84 558.57 570.65 569.6 575.06"/>
  </g>
  <g>
    <polygon class="cls-1" points="600.99 578.43 587.41 580.79 576.39 576.38 589.97 574.02 600.99 578.43"/>
    <polygon class="cls-1" points="600.99 579.44 600.99 587.65 587.41 590.04 587.41 581.83 600.99 579.44"/>
    <polygon class="cls-1" points="587.41 581.83 587.41 590.04 576.39 585.6 576.39 577.42 587.41 581.83"/>
  </g>
  <g>
    <polygon class="cls-1" points="618.8 585.2 605.22 587.55 594.2 583.14 607.78 580.79 618.8 585.2"/>
    <polygon class="cls-1" points="618.8 586.21 618.8 594.42 605.22 596.8 605.22 588.59 618.8 586.21"/>
    <polygon class="cls-1" points="605.22 588.59 605.22 596.8 594.2 592.37 594.2 584.18 605.22 588.59"/>
  </g>
  <g>
    <polygon class="cls-1" points="636.61 591.96 623.03 594.32 612.01 589.91 625.59 587.55 636.61 591.96"/>
    <polygon class="cls-1" points="636.61 592.97 636.61 601.18 623.03 603.57 623.03 595.36 636.61 592.97"/>
    <polygon class="cls-1" points="623.03 595.36 623.03 603.57 612.01 599.13 612.01 590.95 623.03 595.36"/>
  </g>
  <g>
    <polygon class="cls-1" points="654.42 598.73 640.84 601.08 629.82 596.67 643.4 594.32 654.42 598.73"/>
    <polygon class="cls-1" points="654.42 599.74 654.42 607.95 640.84 610.33 640.84 602.12 654.42 599.74"/>
    <polygon class="cls-1" points="640.84 602.12 640.84 610.33 629.82 605.9 629.82 597.71 640.84 602.12"/>
  </g>
  <g>
    <polygon class="cls-1" points="672.24 605.49 658.66 607.85 647.63 603.44 661.21 601.08 672.24 605.49"/>
    <polygon class="cls-1" points="672.24 606.5 672.24 614.71 658.66 617.1 658.66 608.89 672.24 606.5"/>
    <polygon class="cls-1" points="658.66 608.89 658.66 617.1 647.63 612.66 647.63 604.48 658.66 608.89"/>
  </g>
  <g>
    <polygon class="cls-1" points="475.03 542.47 461.45 544.82 450.42 540.41 464.01 538.06 475.03 542.47"/>
    <polygon class="cls-1" points="475.03 543.48 475.03 551.69 461.45 554.07 461.45 545.86 475.03 543.48"/>
    <polygon class="cls-1" points="461.45 545.86 461.45 554.07 450.42 549.64 450.42 541.45 461.45 545.86"/>
  </g>
  <g>
    <polygon class="cls-1" points="492.84 549.23 479.26 551.59 468.24 547.18 481.82 544.82 492.84 549.23"/>
    <polygon class="cls-1" points="492.84 550.24 492.84 558.45 479.26 560.83 479.26 552.63 492.84 550.24"/>
    <polygon class="cls-1" points="479.26 552.63 479.26 560.83 468.24 556.4 468.24 548.22 479.26 552.63"/>
  </g>
  <g>
    <polygon class="cls-1" points="510.65 556 497.07 558.35 486.05 553.94 499.63 551.59 510.65 556"/>
    <polygon class="cls-1" points="510.65 557.01 510.65 565.22 497.07 567.6 497.07 559.39 510.65 557.01"/>
    <polygon class="cls-1" points="497.07 559.39 497.07 567.6 486.05 563.17 486.05 554.98 497.07 559.39"/>
  </g>
  <g>
    <polygon class="cls-1" points="528.46 562.76 514.88 565.12 503.86 560.71 517.44 558.35 528.46 562.76"/>
    <polygon class="cls-1" points="528.46 563.77 528.46 571.98 514.88 574.36 514.88 566.16 528.46 563.77"/>
    <polygon class="cls-1" points="514.88 566.16 514.88 574.36 503.86 569.93 503.86 561.75 514.88 566.16"/>
  </g>
  <g>
    <polygon class="cls-1" points="546.27 569.53 532.69 571.88 521.67 567.47 535.25 565.12 546.27 569.53"/>
    <polygon class="cls-1" points="546.27 570.54 546.27 578.75 532.69 581.13 532.69 572.92 546.27 570.54"/>
    <polygon class="cls-1" points="532.69 572.92 532.69 581.13 521.67 576.7 521.67 568.51 532.69 572.92"/>
  </g>
  <g>
    <polygon class="cls-1" points="564.09 576.29 550.51 578.65 539.48 574.24 553.06 571.88 564.09 576.29"/>
    <polygon class="cls-1" points="564.09 577.3 564.09 585.51 550.51 587.89 550.51 579.69 564.09 577.3"/>
    <polygon class="cls-1" points="550.51 579.69 550.51 587.89 539.48 583.46 539.48 575.28 550.51 579.69"/>
  </g>
  <g>
    <polygon class="cls-1" points="581.9 583.06 568.32 585.41 557.3 581 570.88 578.65 581.9 583.06"/>
    <polygon class="cls-1" points="581.9 584.07 581.9 592.28 568.32 594.66 568.32 586.45 581.9 584.07"/>
    <polygon class="cls-1" points="568.32 586.45 568.32 594.66 557.3 590.23 557.3 582.04 568.32 586.45"/>
  </g>
  <g>
    <polygon class="cls-1" points="599.71 589.82 586.13 592.18 575.11 587.77 588.69 585.41 599.71 589.82"/>
    <polygon class="cls-1" points="599.71 590.83 599.71 599.04 586.13 601.42 586.13 593.22 599.71 590.83"/>
    <polygon class="cls-1" points="586.13 593.22 586.13 601.42 575.11 596.99 575.11 588.81 586.13 593.22"/>
  </g>
  <g>
    <polygon class="cls-1" points="617.52 596.59 603.94 598.94 592.92 594.53 606.5 592.18 617.52 596.59"/>
    <polygon class="cls-1" points="617.52 597.6 617.52 605.81 603.94 608.19 603.94 599.98 617.52 597.6"/>
    <polygon class="cls-1" points="603.94 599.98 603.94 608.19 592.92 603.76 592.92 595.57 603.94 599.98"/>
  </g>
  <g>
    <polygon class="cls-1" points="635.33 603.35 621.75 605.71 610.73 601.3 624.31 598.94 635.33 603.35"/>
    <polygon class="cls-1" points="635.33 604.36 635.33 612.57 621.75 614.95 621.75 606.75 635.33 604.36"/>
    <polygon class="cls-1" points="621.75 606.75 621.75 614.95 610.73 610.52 610.73 602.34 621.75 606.75"/>
  </g>
  <g>
    <polygon class="cls-1" points="653.14 610.11 639.56 612.47 628.54 608.06 642.12 605.71 653.14 610.11"/>
    <polygon class="cls-1" points="653.14 611.13 653.14 619.34 639.56 621.72 639.56 613.51 653.14 611.13"/>
    <polygon class="cls-1" points="639.56 613.51 639.56 621.72 628.54 617.29 628.54 609.1 639.56 613.51"/>
  </g>
  <g>
    <polygon class="cls-1" points="455.94 547.09 442.35 549.45 431.33 545.04 444.91 542.68 455.94 547.09"/>
    <polygon class="cls-1" points="455.94 548.1 455.94 556.31 442.35 558.69 442.35 550.48 455.94 548.1"/>
    <polygon class="cls-1" points="442.35 550.48 442.35 558.69 431.33 554.26 431.33 546.08 442.35 550.48"/>
  </g>
  <g>
    <polygon class="cls-1" points="473.75 553.85 460.17 556.21 449.15 551.8 462.73 549.45 473.75 553.85"/>
    <polygon class="cls-1" points="473.75 554.87 473.75 563.08 460.17 565.46 460.17 557.25 473.75 554.87"/>
    <polygon class="cls-1" points="460.17 557.25 460.17 565.46 449.15 561.02 449.15 552.84 460.17 557.25"/>
  </g>
  <g>
    <polygon class="cls-1" points="491.56 560.62 477.98 562.98 466.96 558.57 480.54 556.21 491.56 560.62"/>
    <polygon class="cls-1" points="491.56 561.63 491.56 569.84 477.98 572.22 477.98 564.01 491.56 561.63"/>
    <polygon class="cls-1" points="477.98 564.01 477.98 572.22 466.96 567.79 466.96 559.61 477.98 564.01"/>
  </g>
  <g>
    <polygon class="cls-1" points="509.37 567.38 495.79 569.74 484.77 565.33 498.35 562.98 509.37 567.38"/>
    <polygon class="cls-1" points="509.37 568.4 509.37 576.61 495.79 578.99 495.79 570.78 509.37 568.4"/>
    <polygon class="cls-1" points="495.79 570.78 495.79 578.99 484.77 574.55 484.77 566.37 495.79 570.78"/>
  </g>
  <g>
    <polygon class="cls-1" points="527.18 574.15 513.6 576.51 502.58 572.1 516.16 569.74 527.18 574.15"/>
    <polygon class="cls-1" points="527.18 575.16 527.18 583.37 513.6 585.75 513.6 577.54 527.18 575.16"/>
    <polygon class="cls-1" points="513.6 577.54 513.6 585.75 502.58 581.32 502.58 573.14 513.6 577.54"/>
  </g>
  <g>
    <polygon class="cls-1" points="544.99 580.91 531.41 583.27 520.39 578.86 533.97 576.51 544.99 580.91"/>
    <polygon class="cls-1" points="544.99 581.93 544.99 590.14 531.41 592.52 531.41 584.31 544.99 581.93"/>
    <polygon class="cls-1" points="531.41 584.31 531.41 592.52 520.39 588.08 520.39 579.9 531.41 584.31"/>
  </g>
  <g>
    <polygon class="cls-1" points="562.81 587.68 549.23 590.04 538.2 585.63 551.78 583.27 562.81 587.68"/>
    <polygon class="cls-1" points="562.81 588.69 562.81 596.9 549.23 599.28 549.23 591.07 562.81 588.69"/>
    <polygon class="cls-1" points="549.23 591.07 549.23 599.28 538.2 594.85 538.2 586.67 549.23 591.07"/>
  </g>
  <g>
    <polygon class="cls-1" points="580.62 594.44 567.04 596.8 556.02 592.39 569.6 590.04 580.62 594.44"/>
    <polygon class="cls-1" points="580.62 595.46 580.62 603.67 567.04 606.05 567.04 597.84 580.62 595.46"/>
    <polygon class="cls-1" points="567.04 597.84 567.04 606.05 556.02 601.61 556.02 593.43 567.04 597.84"/>
  </g>
  <g>
    <polygon class="cls-1" points="598.43 601.21 584.85 603.57 573.83 599.16 587.41 596.8 598.43 601.21"/>
    <polygon class="cls-1" points="598.43 602.22 598.43 610.43 584.85 612.81 584.85 604.6 598.43 602.22"/>
    <polygon class="cls-1" points="584.85 604.6 584.85 612.81 573.83 608.38 573.83 600.2 584.85 604.6"/>
  </g>
  <g>
    <polygon class="cls-1" points="616.24 607.97 602.66 610.33 591.64 605.92 605.22 603.57 616.24 607.97"/>
    <polygon class="cls-1" points="616.24 608.99 616.24 617.2 602.66 619.58 602.66 611.37 616.24 608.99"/>
    <polygon class="cls-1" points="602.66 611.37 602.66 619.58 591.64 615.14 591.64 606.96 602.66 611.37"/>
  </g>
  <g>
    <polygon class="cls-1" points="634.05 614.74 620.47 617.1 609.45 612.69 623.03 610.33 634.05 614.74"/>
    <polygon class="cls-1" points="634.05 615.75 634.05 623.96 620.47 626.34 620.47 618.13 634.05 615.75"/>
    <polygon class="cls-1" points="620.47 618.13 620.47 626.34 609.45 621.91 609.45 613.73 620.47 618.13"/>
  </g>
  <g>
    <polygon class="cls-1" points="436.84 551.71 423.26 554.07 412.24 549.66 425.82 547.3 436.84 551.71"/>
    <polygon class="cls-1" points="436.84 552.73 436.84 560.94 423.26 563.32 423.26 555.11 436.84 552.73"/>
    <polygon class="cls-1" points="423.26 555.11 423.26 563.32 412.24 558.88 412.24 550.7 423.26 555.11"/>
  </g>
  <g>
    <polygon class="cls-1" points="454.66 558.48 441.08 560.83 430.05 556.43 443.63 554.07 454.66 558.48"/>
    <polygon class="cls-1" points="454.66 559.49 454.66 567.7 441.08 570.08 441.08 561.87 454.66 559.49"/>
    <polygon class="cls-1" points="441.08 561.87 441.08 570.08 430.05 565.65 430.05 557.46 441.08 561.87"/>
  </g>
  <g>
    <polygon class="cls-1" points="472.47 565.24 458.89 567.6 447.87 563.19 461.45 560.83 472.47 565.24"/>
    <polygon class="cls-1" points="472.47 566.26 472.47 574.47 458.89 576.85 458.89 568.64 472.47 566.26"/>
    <polygon class="cls-1" points="458.89 568.64 458.89 576.85 447.87 572.41 447.87 564.23 458.89 568.64"/>
  </g>
  <g>
    <polygon class="cls-1" points="490.28 572.01 476.7 574.36 465.68 569.96 479.26 567.6 490.28 572.01"/>
    <polygon class="cls-1" points="490.28 573.02 490.28 581.23 476.7 583.61 476.7 575.4 490.28 573.02"/>
    <polygon class="cls-1" points="476.7 575.4 476.7 583.61 465.68 579.18 465.68 570.99 476.7 575.4"/>
  </g>
  <g>
    <polygon class="cls-1" points="508.09 578.77 494.51 581.13 483.49 576.72 497.07 574.36 508.09 578.77"/>
    <polygon class="cls-1" points="508.09 579.79 508.09 588 494.51 590.38 494.51 582.17 508.09 579.79"/>
    <polygon class="cls-1" points="494.51 582.17 494.51 590.38 483.49 585.94 483.49 577.76 494.51 582.17"/>
  </g>
  <g>
    <polygon class="cls-1" points="525.9 585.54 512.32 587.89 501.3 583.49 514.88 581.13 525.9 585.54"/>
    <polygon class="cls-1" points="525.9 586.55 525.9 594.76 512.32 597.14 512.32 588.93 525.9 586.55"/>
    <polygon class="cls-1" points="512.32 588.93 512.32 597.14 501.3 592.71 501.3 584.52 512.32 588.93"/>
  </g>
  <g>
    <polygon class="cls-1" points="543.72 592.3 530.13 594.66 519.11 590.25 532.69 587.89 543.72 592.3"/>
    <polygon class="cls-1" points="543.72 593.32 543.72 601.53 530.13 603.91 530.13 595.7 543.72 593.32"/>
    <polygon class="cls-1" points="530.13 595.7 530.13 603.91 519.11 599.47 519.11 591.29 530.13 595.7"/>
  </g>
  <g>
    <polygon class="cls-1" points="561.53 599.07 547.95 601.42 536.92 597.02 550.51 594.66 561.53 599.07"/>
    <polygon class="cls-1" points="561.53 600.08 561.53 608.29 547.95 610.67 547.95 602.46 561.53 600.08"/>
    <polygon class="cls-1" points="547.95 602.46 547.95 610.67 536.92 606.24 536.92 598.05 547.95 602.46"/>
  </g>
  <g>
    <polygon class="cls-1" points="579.34 605.83 565.76 608.19 554.74 603.78 568.32 601.42 579.34 605.83"/>
    <polygon class="cls-1" points="579.34 606.85 579.34 615.06 565.76 617.44 565.76 609.23 579.34 606.85"/>
    <polygon class="cls-1" points="565.76 609.23 565.76 617.44 554.74 613 554.74 604.82 565.76 609.23"/>
  </g>
  <g>
    <polygon class="cls-1" points="597.15 612.6 583.57 614.95 572.55 610.55 586.13 608.19 597.15 612.6"/>
    <polygon class="cls-1" points="597.15 613.61 597.15 621.82 583.57 624.2 583.57 615.99 597.15 613.61"/>
    <polygon class="cls-1" points="583.57 615.99 583.57 624.2 572.55 619.77 572.55 611.58 583.57 615.99"/>
  </g>
  <g>
    <polygon class="cls-1" points="614.96 619.36 601.38 621.72 590.36 617.31 603.94 614.95 614.96 619.36"/>
    <polygon class="cls-1" points="614.96 620.38 614.96 628.59 601.38 630.97 601.38 622.76 614.96 620.38"/>
    <polygon class="cls-1" points="601.38 622.76 601.38 630.97 590.36 626.53 590.36 618.35 601.38 622.76"/>
  </g>
  <g>
    <polygon class="cls-1" points="417.75 556.34 404.17 558.69 393.15 554.28 406.73 551.93 417.75 556.34"/>
    <polygon class="cls-1" points="417.75 557.35 417.75 565.56 404.17 567.94 404.17 559.73 417.75 557.35"/>
    <polygon class="cls-1" points="404.17 559.73 404.17 567.94 393.15 563.51 393.15 555.32 404.17 559.73"/>
  </g>
  <g>
    <polygon class="cls-1" points="435.56 563.1 421.98 565.46 410.96 561.05 424.54 558.69 435.56 563.1"/>
    <polygon class="cls-1" points="435.56 564.12 435.56 572.32 421.98 574.71 421.98 566.5 435.56 564.12"/>
    <polygon class="cls-1" points="421.98 566.5 421.98 574.71 410.96 570.27 410.96 562.09 421.98 566.5"/>
  </g>
  <g>
    <polygon class="cls-1" points="453.38 569.87 439.8 572.22 428.77 567.81 442.36 565.46 453.38 569.87"/>
    <polygon class="cls-1" points="453.38 570.88 453.38 579.09 439.8 581.47 439.8 573.26 453.38 570.88"/>
    <polygon class="cls-1" points="439.8 573.26 439.8 581.47 428.77 577.04 428.77 568.85 439.8 573.26"/>
  </g>
  <g>
    <polygon class="cls-1" points="471.19 576.63 457.61 578.99 446.59 574.58 460.17 572.22 471.19 576.63"/>
    <polygon class="cls-1" points="471.19 577.65 471.19 585.85 457.61 588.24 457.61 580.03 471.19 577.65"/>
    <polygon class="cls-1" points="457.61 580.03 457.61 588.24 446.59 583.8 446.59 575.62 457.61 580.03"/>
  </g>
  <g>
    <polygon class="cls-1" points="489 583.4 475.42 585.75 464.4 581.34 477.98 578.99 489 583.4"/>
    <polygon class="cls-1" points="489 584.41 489 592.62 475.42 595 475.42 586.79 489 584.41"/>
    <polygon class="cls-1" points="475.42 586.79 475.42 595 464.4 590.57 464.4 582.38 475.42 586.79"/>
  </g>
  <g>
    <polygon class="cls-1" points="506.81 590.16 493.23 592.52 482.21 588.11 495.79 585.75 506.81 590.16"/>
    <polygon class="cls-1" points="506.81 591.18 506.81 599.38 493.23 601.77 493.23 593.56 506.81 591.18"/>
    <polygon class="cls-1" points="493.23 593.56 493.23 601.77 482.21 597.33 482.21 589.15 493.23 593.56"/>
  </g>
  <g>
    <polygon class="cls-1" points="524.62 596.93 511.04 599.28 500.02 594.87 513.6 592.52 524.62 596.93"/>
    <polygon class="cls-1" points="524.62 597.94 524.62 606.15 511.04 608.53 511.04 600.32 524.62 597.94"/>
    <polygon class="cls-1" points="511.04 600.32 511.04 608.53 500.02 604.1 500.02 595.91 511.04 600.32"/>
  </g>
  <g>
    <polygon class="cls-1" points="542.44 603.69 528.86 606.05 517.83 601.64 531.41 599.28 542.44 603.69"/>
    <polygon class="cls-1" points="542.44 604.7 542.44 612.91 528.86 615.3 528.86 607.09 542.44 604.7"/>
    <polygon class="cls-1" points="528.86 607.09 528.86 615.3 517.83 610.86 517.83 602.68 528.86 607.09"/>
  </g>
  <g>
    <polygon class="cls-1" points="560.25 610.46 546.67 612.81 535.65 608.4 549.23 606.05 560.25 610.46"/>
    <polygon class="cls-1" points="560.25 611.47 560.25 619.68 546.67 622.06 546.67 613.85 560.25 611.47"/>
    <polygon class="cls-1" points="546.67 613.85 546.67 622.06 535.65 617.63 535.65 609.44 546.67 613.85"/>
  </g>
  <g>
    <polygon class="cls-1" points="578.06 617.22 564.48 619.58 553.46 615.17 567.04 612.81 578.06 617.22"/>
    <polygon class="cls-1" points="578.06 618.23 578.06 626.44 564.48 628.83 564.48 620.62 578.06 618.23"/>
    <polygon class="cls-1" points="564.48 620.62 564.48 628.83 553.46 624.39 553.46 616.21 564.48 620.62"/>
  </g>
  <g>
    <polygon class="cls-1" points="595.87 623.99 582.29 626.34 571.27 621.93 584.85 619.58 595.87 623.99"/>
    <polygon class="cls-1" points="595.87 625 595.87 633.21 582.29 635.59 582.29 627.38 595.87 625"/>
    <polygon class="cls-1" points="582.29 627.38 582.29 635.59 571.27 631.16 571.27 622.97 582.29 627.38"/>
  </g>
  <g>
    <polygon class="cls-1" points="398.66 560.96 385.08 563.32 374.06 558.91 387.64 556.55 398.66 560.96"/>
    <polygon class="cls-1" points="398.66 561.97 398.66 570.18 385.08 572.56 385.08 564.36 398.66 561.97"/>
    <polygon class="cls-1" points="385.08 564.36 385.08 572.56 374.06 568.13 374.06 559.95 385.08 564.36"/>
  </g>
  <g>
    <polygon class="cls-1" points="416.47 567.73 402.89 570.08 391.87 565.67 405.45 563.32 416.47 567.73"/>
    <polygon class="cls-1" points="416.47 568.74 416.47 576.95 402.89 579.33 402.89 571.12 416.47 568.74"/>
    <polygon class="cls-1" points="402.89 571.12 402.89 579.33 391.87 574.9 391.87 566.71 402.89 571.12"/>
  </g>
  <g>
    <polygon class="cls-1" points="434.29 574.49 420.7 576.85 409.68 572.44 423.26 570.08 434.29 574.49"/>
    <polygon class="cls-1" points="434.29 575.5 434.29 583.71 420.7 586.09 420.7 577.89 434.29 575.5"/>
    <polygon class="cls-1" points="420.7 577.89 420.7 586.09 409.68 581.66 409.68 573.48 420.7 577.89"/>
  </g>
  <g>
    <polygon class="cls-1" points="452.1 581.26 438.52 583.61 427.5 579.2 441.08 576.85 452.1 581.26"/>
    <polygon class="cls-1" points="452.1 582.27 452.1 590.48 438.52 592.86 438.52 584.65 452.1 582.27"/>
    <polygon class="cls-1" points="438.52 584.65 438.52 592.86 427.5 588.43 427.5 580.24 438.52 584.65"/>
  </g>
  <g>
    <polygon class="cls-1" points="469.91 588.02 456.33 590.38 445.31 585.97 458.89 583.61 469.91 588.02"/>
    <polygon class="cls-1" points="469.91 589.03 469.91 597.24 456.33 599.62 456.33 591.42 469.91 589.03"/>
    <polygon class="cls-1" points="456.33 591.42 456.33 599.62 445.31 595.19 445.31 587.01 456.33 591.42"/>
  </g>
  <g>
    <polygon class="cls-1" points="487.72 594.79 474.14 597.14 463.12 592.73 476.7 590.38 487.72 594.79"/>
    <polygon class="cls-1" points="487.72 595.8 487.72 604.01 474.14 606.39 474.14 598.18 487.72 595.8"/>
    <polygon class="cls-1" points="474.14 598.18 474.14 606.39 463.12 601.96 463.12 593.77 474.14 598.18"/>
  </g>
  <g>
    <polygon class="cls-1" points="505.53 601.55 491.95 603.91 480.93 599.5 494.51 597.14 505.53 601.55"/>
    <polygon class="cls-1" points="505.53 602.56 505.53 610.77 491.95 613.15 491.95 604.95 505.53 602.56"/>
    <polygon class="cls-1" points="491.95 604.95 491.95 613.15 480.93 608.72 480.93 600.54 491.95 604.95"/>
  </g>
  <g>
    <polygon class="cls-1" points="523.34 608.32 509.76 610.67 498.74 606.26 512.32 603.91 523.34 608.32"/>
    <polygon class="cls-1" points="523.34 609.33 523.34 617.54 509.76 619.92 509.76 611.71 523.34 609.33"/>
    <polygon class="cls-1" points="509.76 611.71 509.76 619.92 498.74 615.49 498.74 607.3 509.76 611.71"/>
  </g>
  <g>
    <polygon class="cls-1" points="541.16 615.08 527.58 617.44 516.55 613.03 530.14 610.67 541.16 615.08"/>
    <polygon class="cls-1" points="541.16 616.09 541.16 624.3 527.58 626.68 527.58 618.48 541.16 616.09"/>
    <polygon class="cls-1" points="527.58 618.48 527.58 626.68 516.55 622.25 516.55 614.07 527.58 618.48"/>
  </g>
  <g>
    <polygon class="cls-1" points="558.97 621.85 545.39 624.2 534.37 619.79 547.95 617.44 558.97 621.85"/>
    <polygon class="cls-1" points="558.97 622.86 558.97 631.07 545.39 633.45 545.39 625.24 558.97 622.86"/>
    <polygon class="cls-1" points="545.39 625.24 545.39 633.45 534.37 629.02 534.37 620.83 545.39 625.24"/>
  </g>
  <g>
    <polygon class="cls-1" points="576.78 628.61 563.2 630.97 552.18 626.56 565.76 624.2 576.78 628.61"/>
    <polygon class="cls-1" points="576.78 629.62 576.78 637.83 563.2 640.21 563.2 632.01 576.78 629.62"/>
    <polygon class="cls-1" points="563.2 632.01 563.2 640.21 552.18 635.78 552.18 627.6 563.2 632.01"/>
  </g>
  <polygon class="cls-1" points="514.13 746.47 540.27 758.32 540.27 692.34 251.29 571.82 251.29 619.17 513.86 730.36 514.13 746.47"/>
  <polygon class="cls-1" points="697.89 758.32 251.29 572.93 251.29 563.23 697.89 748.62 697.89 758.32"/>
  <polygon class="cls-1" points="891.07 702.05 697.89 758.26 697.89 748.55 891.07 692.34 891.07 702.05"/>
  <polygon class="cls-1" points="813.56 645.6 646.04 693.31 646.04 683.6 813.56 635.9 813.56 645.6"/>
  <polygon class="cls-1" points="839.25 678.87 671.73 726.57 671.73 702.58 839.25 654.88 839.25 678.87"/>
  <polygon class="cls-1" points="540.27 692.34 540.27 758.32 639.92 734.26 540.27 692.34"/>
  <polygon class="cls-1" points="813.56 635.81 645.8 683.58 590.09 665.07 764.34 619.46 813.56 635.81"/>
  <polygon class="cls-1" points="839.25 654.95 671.48 702.72 646.04 693.56 813.56 645.6 839.25 654.95"/>
  <polygon class="cls-1" points="570.34 688.56 570.34 672.03 590.09 665.07 645.8 683.58 646.04 693.56 671.48 702.72 671.73 726.57 570.34 688.56"/>
  <polygon class="cls-1" points="773.14 622.32 570.34 681.51 570.34 639.86 773.14 582.79 773.14 622.32"/>
  <polygon class="cls-1" points="570.34 681.69 311.06 577.33 311.06 535.51 570.34 639.86 570.34 681.69"/>
  <path class="cls-1" d="M805.33,431.77l-235.6,207.81,203.43-56.8,243.15-193.34-210.98,42.34ZM604.66,620l201.5-178.95,184.65-38.97-214.55,170.03-171.6,47.89Z"/>
  <polygon class="cls-1" points="990.82 402.08 776.27 572.11 604.66 620 806.16 441.04 990.82 402.08"/>
  <path class="cls-1" d="M975.33,117.93l4.59-21.43-10.06,2.43-4.54,21.33-97.62,22.3-61.54,289.06,210.98-42.34,62.86-295.2-104.67,23.84ZM1011.31,382.64l-194.38,38.99,56.73-271.48,195.57-44.64-57.92,277.13Z"/>
  <polygon class="cls-1" points="1069.23 105.51 1011.31 382.64 816.93 421.64 873.66 150.15 1069.23 105.51"/>
  <path class="cls-1" d="M113.59,408.22v38.92l-35.34,14.87-.03-.03c-.2-.56-3.85-9.45-13.28-17.41-6.16-5.19-14.97-8.51-20.6-10.26l69.24-26.1Z"/>
  <polygon class="cls-1" points="186.31 435.1 186.31 474.04 113.59 447.13 113.59 408.22 186.31 435.1"/>
  <path class="cls-1" d="M199.63,435.1h-13.33l-72.72-26.88-69.24,26.1c-2.99-.91-5.07-1.39-5.4-1.44-.03-.03-.05-.03-.05-.03l74.54-29.13,86.19,31.39Z"/>
  <path class="cls-1" d="M186.31,474.04s-18.95,8.44-54.27,10.49c-35.34,2.05-53.79-10.49-53.79-10.49v-12.03l35.34-14.87h0l72.72,26.91Z"/>
  <path class="cls-1" d="M86.57,531.23h97.77c2.28,0,4.14,1.85,4.14,4.14v6.35h-101.91v-10.49h0Z" transform="translate(444.4 75.45) rotate(48.03)"/>
  <path class="cls-1" d="M199.63,435.1v57.11s-47.13,9.4-67.09,10.24c-59.92,2.56-93.64-21.23-93.64-21.23v-48.37s.03,0,.05.03c.33.05,2.41.53,5.4,1.44,5.62,1.75,14.44,5.07,20.6,10.26,9.43,7.96,13.07,16.85,13.28,17.41l.03.03v12.03s18.45,12.54,53.79,10.49c35.32-2.05,54.27-10.49,54.27-10.49v-38.94h13.33Z"/>
  <path class="cls-1" d="M53.68,915.23l-2.1.84c.66-.56,1.37-.84,2.1-.84Z"/>
  <path class="cls-1" d="M37.14,961.09c-.66.56-1.37.84-2.1.84l2.1-.84Z"/>
  <g>
    <path class="cls-1" d="M271.55,617.94c0,8.89-2.2,16.44-5.22,18.85l-2.1.84c-4.05,0-7.35-8.82-7.35-19.69s3.29-19.69,7.35-19.69,7.32,8.82,7.32,19.69Z"/>
    <path class="cls-1" d="M290.2,610.62c0,10.87-3.27,19.69-7.32,19.69l-16.54,6.49c3.02-2.41,5.22-9.96,5.22-18.85,0-10.87-3.27-19.69-7.32-19.69l16.52-6.49h.03l2.1-.84c4.05,0,7.32,8.82,7.32,19.69Z"/>
  </g>
  <path class="cls-1" d="M278.99,611.13h34.05v7.09h-31.25c-1.55,0-2.8-1.25-2.8-2.8v-4.29h0Z" transform="translate(174 -56.57) rotate(15.41)"/>
  <path class="cls-1" d="M228.62,628.1h87v7.09h-89.8v-4.29c0-1.55,1.25-2.8,2.8-2.8Z" transform="translate(-174.93 108.52) rotate(-17.23)"/>
  <circle class="cls-1" cx="312.41" cy="618.6" r="3.93"/>
  <polygon class="cls-1" points="452.01 358.04 452.01 371.44 376 385.86 266.24 408.21 265.83 394.91 373.46 372.99 374.15 372.86 376 372.51 452.01 358.04"/>
  <path class="cls-1" d="M452.01,358.04l-76.01,14.44-1.85.38-.68.13-107.63,21.92-.43-14.8,52.5-10.21s-.05,1.85,1.67,3.34c4.48,3.88,12.21,3.9,17.81,3.8,39.42-.67,36.08-18.52,36.08-18.52l31.29-5.5,47.25,5.02Z"/>
  <g>
    <polygon class="cls-1" points="233.05 195.18 222.49 212.69 189.1 212.69 199.66 195.18 233.05 195.18"/>
    <path class="cls-1" d="M201.42,206.9l-28.07-15.43,3.81-9.71,25.63,20.65c1.18.97,1.46,2.67.64,3.97h0c-.43.68-1.31.9-2.01.52Z"/>
    <path class="cls-1" d="M217.76,206.76l-27.82-15.29,3.34-10.05,26.33,21.17c1.06.87,1.3,2.39.57,3.55h0c-.51.81-1.57,1.08-2.41.62Z"/>
    <polygon class="cls-1" points="233.05 195.18 233.05 219.43 222.49 212.69 233.05 195.18"/>
    <polygon class="cls-1" points="233.05 219.43 198.22 218.91 189.1 212.69 222.49 212.69 233.05 219.43"/>
    <ellipse class="cls-1" cx="175.62" cy="186.88" rx="4.17" ry="5.5"/>
    <ellipse class="cls-1" cx="191.63" cy="186.49" rx="4.17" ry="5.5"/>
  </g>
  <g>
    <polygon class="cls-1" points="231.37 389.88 220.82 407.39 187.43 407.39 197.99 389.88 231.37 389.88"/>
    <path class="cls-1" d="M199.74,401.6l-28.07-15.43,3.81-9.71,25.63,20.65c1.18.97,1.46,2.67.64,3.97h0c-.43.68-1.31.9-2.01.52Z"/>
    <path class="cls-1" d="M216.09,401.46l-27.82-15.29,3.34-10.05,26.33,21.17c1.06.87,1.3,2.39.57,3.55h0c-.51.81-1.57,1.08-2.41.62Z"/>
    <polygon class="cls-1" points="231.37 389.88 231.37 414.13 220.82 407.39 231.37 389.88"/>
    <polygon class="cls-1" points="231.37 414.13 196.55 413.61 187.43 407.39 220.82 407.39 231.37 414.13"/>
    <ellipse class="cls-1" cx="173.95" cy="381.58" rx="4.17" ry="5.5"/>
    <ellipse class="cls-1" cx="189.96" cy="381.19" rx="4.17" ry="5.5"/>
  </g>
  <g>
    <path class="cls-1" d="M823.83,535.95c-.06,3.22-1.35,5.5-3.65,6.4-2.35.68,6.74-1.97-8.35,2.44-39.89,11.64-97.01,28.31-137.08,40-7.23,2.08-11.97,3.56-13.2,3.8-.43-.12-.32-.46-.43-1.07-.07-.87-.08-2.52-.08-4.61-.02-2.74-.05-6.35.13-8.59.08-.59.23-.79.46-.91,8.81-2.53,145.56-40.25,156.71-43.69,2.6-.8,5.56,2.18,5.49,6.23Z"/>
    <path class="cls-1" d="M665.06,581.33c.09,2.93-1.86,9.48-5.68,6.78-3.13-3.12-3-9.63-.84-13.12,3.6-4.89,6.8,2.28,6.53,5.81v.53Z"/>
  </g>
  <path class="cls-1" d="M628.43,615.25h110.18c1.76,0,3.19,1.43,3.19,3.19v7.29h-112.85c-1.07,0-1.95-.87-1.95-1.95v-7.12c0-.78.64-1.42,1.42-1.42Z" transform="translate(-151.91 1012.94) rotate(-67.33)"/>
  <path class="cls-1" d="M717.37,590.1h107.76c2.28,0,4.14,1.85,4.14,4.14v6.35h-111.35c-1.17,0-2.13-.95-2.13-2.13v-6.78c0-.87.71-1.58,1.58-1.58Z" transform="translate(-74.53 1078.79) rotate(-67.33)"/>
  <polygon class="cls-1" points="259.9 195.34 452.38 176.33 452.38 242.23 262.15 265.75 259.9 195.34"/>
</svg>