<?xml version="1.0" encoding="UTF-8"?>
<svg id="printing_press" xmlns="http://www.w3.org/2000/svg" viewBox="0 0 163.07 227.22">
  <defs>
    <style>
      .cls-1 {
        fill: #fff;
        stroke: #ed1c24;
        stroke-miterlimit: 10;
        stroke-width: .5px;
      }
    </style>
  </defs>
  <rect class="cls-1" x="15.17" y="1.07" width="132.76" height="39.1"/>
  <path class="cls-1" d="M15.17,1.07s-4.69,9.47-4.69,19.55,4.69,19.55,4.69,19.55V1.07Z"/>
  <path class="cls-1" d="M147.93,1.07s4.69,9.47,4.69,19.55-4.69,19.55-4.69,19.55V1.07Z"/>
  <path class="cls-1" d="M48.89,49.18v2.2H15.47c-4.05,0-7.34-3.28-7.34-7.33v-26.27h2.35v26.03c0,2.96,2.4,5.37,5.37,5.37h33.04Z"/>
  <path class="cls-1" d="M114.19,49.18v2.2h33.42c4.05,0,7.34-3.28,7.34-7.33v-26.27h-2.35v26.03c0,2.96-2.4,5.37-5.37,5.37h-33.04Z"/>
  <rect class="cls-1" x=".25" y="17.78" width="7.88" height="4.21"/>
  <rect class="cls-1" x="154.95" y="17.78" width="7.88" height="4.21"/>
  <path class="cls-1" d="M97.71,210.53c0,4.54-1.84,8.65-4.82,11.63-2.98,2.97-7.09,4.81-11.63,4.81h-.72c-9.08,0-16.44-7.36-16.44-16.44l4.41-130.46h24.85l4.35,130.46Z"/>
  <path class="cls-1" d="M48.05,40.16l.84,16.88s7.86,1.09,12.75,7.61,6.87,15.42,6.87,15.42h24.84s2.55-11.07,8.26-15.96,12.57-7.61,12.57-7.61v-16.34H48.05Z"/>
</svg>