<svg width="137" height="214" viewBox="0 0 137 214" fill="none" xmlns="http://www.w3.org/2000/svg">
<rect x="119.754" width="125.995" height="104.36" transform="rotate(82.5857 119.754 0)" fill="#A91626"/>
<g clip-path="url(#clip0_239_3029)">
<path d="M114.718 31.9788L115.671 28.8693C115.662 28.9942 115.642 29.1158 115.605 29.2378L114.87 31.6363C114.832 31.7583 114.781 31.8702 114.718 31.9788Z" fill="white" stroke="#ED1C24" stroke-width="0.5" stroke-miterlimit="10"/>
<path d="M112.796 32.7364C112.355 32.6013 112.015 32.3057 111.818 31.926C111.619 31.5516 111.561 31.0983 111.694 30.6632L112.429 28.2647C112.697 27.3892 113.627 26.8962 114.503 27.1648C114.944 27.2998 115.283 27.5954 115.48 27.9751C115.624 28.2455 115.691 28.5564 115.671 28.8694C115.662 28.9943 115.642 29.1159 115.605 29.2379L114.87 31.6364C114.832 31.7584 114.78 31.8703 114.718 31.9789C114.343 32.6358 113.55 32.9675 112.796 32.7364Z" fill="white" stroke="#ED1C24" stroke-width="0.5" stroke-miterlimit="10"/>
<path d="M98.2896 28.8713L99.1385 26.1014C99.1466 26.0749 99.1548 26.0483 99.1682 26.0234L98.321 28.788C98.3128 28.8145 98.3031 28.8464 98.2896 28.8713Z" fill="white" stroke="#ED1C24" stroke-width="0.5" stroke-miterlimit="10"/>
<path d="M79.497 124.217L79.8905 122.933C80.159 122.057 79.6658 121.129 78.7889 120.86C77.912 120.591 76.9834 121.084 76.7149 121.96L76.3213 123.244C76.0528 124.12 76.546 125.049 77.4229 125.317C78.2998 125.586 79.2284 125.094 79.497 124.217Z" fill="white" stroke="#ED1C24" stroke-width="0.5" stroke-miterlimit="10"/>
<path d="M96.7873 22.438L97.7402 19.3285C97.731 19.4534 97.7112 19.575 97.6738 19.6971L96.9387 22.0955C96.9013 22.2176 96.8496 22.3294 96.7873 22.438Z" fill="white" stroke="#ED1C24" stroke-width="0.5" stroke-miterlimit="10"/>
<path d="M94.8646 23.1953C94.4239 23.0603 94.0846 22.7647 93.8872 22.385C93.6883 22.0106 93.6297 21.5573 93.7631 21.1222L94.4981 18.7237C94.7664 17.8482 95.6959 17.3552 96.5721 17.6238C97.0129 17.7588 97.3522 18.0544 97.5495 18.4341C97.6932 18.7045 97.7606 19.0154 97.7402 19.3284C97.7309 19.4533 97.7111 19.5749 97.6737 19.6969L96.9387 22.0954C96.9013 22.2174 96.8495 22.3293 96.7872 22.4379C96.4116 23.0948 95.6187 23.4264 94.8646 23.1953Z" fill="white" stroke="#ED1C24" stroke-width="0.5" stroke-miterlimit="10"/>
<path d="M54.2865 115.76L57.5437 105.131C57.812 104.256 58.7415 103.763 59.6177 104.031C60.0532 104.165 60.3962 104.467 60.5951 104.842C60.7994 105.218 60.8543 105.664 60.7193 106.105C60.5929 106.536 60.6494 106.977 60.85 107.346C61.0489 107.721 61.3919 108.023 61.8274 108.156C62.7089 108.427 63.6384 107.934 63.9067 107.058L64.9816 103.551C65.2516 102.67 66.1811 102.177 67.0573 102.445C67.498 102.58 67.8357 102.881 68.0347 103.256C68.2336 103.63 68.2922 104.083 68.1572 104.524L67.0823 108.031C66.9473 108.472 67.0076 108.92 67.2065 109.294C67.4055 109.669 67.7431 109.969 68.1839 110.104C69.0601 110.373 69.9896 109.88 70.2579 109.005L70.9783 106.654C71.2483 105.773 72.1778 105.28 73.0593 105.55C73.4947 105.684 73.8377 105.986 74.0367 106.361C74.2409 106.737 74.2942 107.188 74.1592 107.629L71.5248 116.225C71.3915 116.66 71.4448 117.112 71.649 117.488C71.8463 117.867 72.191 118.165 72.6264 118.298C73.5026 118.567 74.4321 118.074 74.7004 117.198L75.4745 114.672C75.7428 113.797 76.6723 113.304 77.5485 113.572C77.984 113.706 78.327 114.008 78.5259 114.383C78.7302 114.759 78.7851 115.205 78.6501 115.645C78.5237 116.077 78.5802 116.518 78.7808 116.887C78.9797 117.261 79.3227 117.564 79.7582 117.697C80.6397 117.968 81.5692 117.475 81.8375 116.599L82.9124 113.092C83.1824 112.211 84.1119 111.718 84.9881 111.986C85.4288 112.121 85.7665 112.422 85.9655 112.797C86.1644 113.171 86.223 113.624 86.088 114.065L85.0131 117.572C84.8781 118.013 84.9384 118.461 85.1373 118.835C85.3363 119.21 85.6739 119.51 86.1147 119.645C86.9909 119.914 87.9204 119.421 88.1887 118.545L88.9091 116.195C89.1791 115.314 90.1086 114.821 90.9901 115.091C91.4255 115.225 91.7685 115.527 91.9675 115.901C92.1717 116.278 92.225 116.729 92.09 117.17L89.4556 125.766C89.3223 126.201 89.3756 126.653 89.5798 127.029C89.7771 127.408 90.1218 127.706 90.5572 127.839C91.4334 128.108 92.3629 127.615 92.6312 126.739L120.359 36.2616C120.494 35.8211 120.439 35.3748 120.235 34.9987C120.036 34.6243 119.693 34.3218 119.258 34.1884C118.381 33.9199 117.452 34.4128 117.184 35.2884L116.252 38.3289C115.983 39.2044 115.054 39.6974 114.178 39.4288C113.737 39.2938 113.392 38.9966 113.195 38.6169C112.996 38.2425 112.937 37.7892 113.071 37.354L113.329 36.5103C113.464 36.0699 113.404 35.6219 113.205 35.2475C113.006 34.8731 112.669 34.5722 112.228 34.4372C111.352 34.1686 110.422 34.6616 110.154 35.5371L108.871 39.7238C108.602 40.5993 107.673 41.0923 106.797 40.8238C106.356 40.6887 106.017 40.3932 105.819 40.0134C105.62 39.639 105.562 39.1857 105.695 38.7506L108.357 30.0642C108.492 29.6238 108.432 29.1758 108.233 28.8014C108.034 28.4269 107.691 28.1245 107.25 27.9894C106.374 27.7209 105.445 28.2138 105.176 29.0894L102.23 38.7044C101.96 39.5852 101.032 40.0729 100.156 39.8043C99.7201 39.6709 99.3755 39.3737 99.1766 38.9993C98.9723 38.6233 98.9191 38.1716 99.054 37.7312L102.319 27.0761C102.454 26.6357 102.399 26.1893 102.195 25.8133C101.996 25.4389 101.653 25.1364 101.212 25.0013C100.363 24.7409 99.4623 25.1963 99.1682 26.0233L98.3209 28.7879C98.3128 28.8144 98.303 28.8463 98.2896 28.8712C97.9902 29.6966 97.0966 30.1483 96.2469 29.8879C95.8061 29.7528 95.4615 29.4557 95.2642 29.0759C95.0653 28.7015 95.0067 28.2482 95.14 27.8131L95.3986 26.9694C95.5336 26.529 95.4733 26.081 95.2744 25.7065C95.0754 25.3321 94.7378 25.0313 94.297 24.8962C93.4208 24.6277 92.4913 25.1206 92.223 25.9962L90.9399 30.1828C90.6716 31.0584 89.7421 31.5513 88.8659 31.2828C88.4251 31.1477 88.0858 30.8522 87.8885 30.4725C87.6896 30.0981 87.631 29.6448 87.7643 29.2096L90.4264 20.5233C90.5613 20.0828 90.5011 19.6348 90.3022 19.2604C90.1032 18.886 89.7602 18.5835 89.3195 18.4484C88.4433 18.1799 87.5138 18.6729 87.2455 19.5484L84.2988 29.1634C84.0289 30.0443 83.101 30.5319 82.2248 30.2634C81.7893 30.1299 81.4447 29.8328 81.2458 29.4584C81.0415 29.0823 80.9882 28.6306 81.1232 28.1902L82.0144 25.2824C82.1493 24.8419 82.0944 24.3956 81.8902 24.0195C81.6912 23.6451 81.3482 23.3426 80.9128 23.2092C80.0366 22.9407 79.1071 23.4336 78.8388 24.3092L77.907 27.3497C77.6386 28.2252 76.7091 28.7182 75.8329 28.4496C75.3922 28.3146 75.0476 28.0174 74.8502 27.6377C74.6513 27.2633 74.5927 26.8099 74.726 26.3748L74.9846 25.5311C75.1196 25.0907 75.0594 24.6427 74.8604 24.2683C74.6615 23.8939 74.3238 23.593 73.883 23.458C73.0068 23.1894 72.0773 23.6824 71.809 24.5579L70.526 28.7446C70.2576 29.6201 69.3281 30.1131 68.4519 29.8446C68.0112 29.7095 67.6719 29.414 67.4745 29.0342C67.2756 28.6598 67.217 28.2065 67.3503 27.7714L70.0124 19.085C70.1474 18.6446 70.0872 18.1966 69.8882 17.8222C69.6893 17.4477 69.3463 17.1453 68.9055 17.0102C68.0293 16.7417 67.0998 17.2346 66.8315 18.1102L63.8849 27.7252C63.6149 28.606 62.687 29.0937 61.8108 28.8251C61.3754 28.6917 61.0308 28.3945 60.8318 28.0201C60.6276 27.6441 60.5743 27.1924 60.7092 26.752L61.4101 24.4649C61.5435 24.0298 61.4902 23.5782 61.2859 23.2021C61.0886 22.8224 60.744 22.5252 60.3086 22.3918C59.4323 22.1232 58.5028 22.6162 58.2345 23.4917L33.2841 104.906C33.1492 105.346 33.2024 105.798 33.4067 106.174C33.604 106.554 33.9486 106.851 34.3841 106.985C35.2603 107.253 36.1898 106.76 36.4597 105.879L37.1297 103.693C37.398 102.818 38.3275 102.325 39.2037 102.593C39.6392 102.727 39.9822 103.029 40.1811 103.403C40.3854 103.779 40.4403 104.226 40.3053 104.666C40.1789 105.098 40.2354 105.539 40.436 105.908C40.635 106.282 40.9779 106.585 41.4134 106.718C42.2949 106.988 43.2244 106.495 43.4927 105.62L44.5676 102.112C44.8376 101.232 45.7671 100.739 46.6433 101.007C47.0841 101.142 47.4217 101.443 47.6207 101.817C47.8196 102.192 47.8782 102.645 47.7432 103.086L46.6683 106.593C46.5334 107.033 46.5936 107.481 46.7925 107.856C46.9915 108.23 47.3292 108.531 47.7699 108.666C48.6461 108.935 49.5756 108.442 49.8439 107.566L50.5643 105.216C50.8343 104.335 51.7638 103.842 52.6453 104.112C53.0808 104.245 53.4237 104.548 53.6227 104.922C53.8269 105.298 53.8802 105.75 53.7453 106.19L51.1109 114.787C50.9775 115.222 51.0308 115.673 51.235 116.049C51.4324 116.429 51.777 116.726 52.2124 116.86C53.0886 117.128 54.0181 116.635 54.2865 115.76ZM88.0533 90.6301C87.6178 90.4966 87.2732 90.1995 87.0759 89.8197C86.8716 89.4437 86.8184 88.992 86.9517 88.5569L92.0742 71.8421C92.3425 70.9666 93.272 70.4736 94.1482 70.7421C94.589 70.8772 94.9336 71.1744 95.1309 71.5541C95.3298 71.9285 95.3884 72.3818 95.2551 72.8169L90.1326 89.5317C89.8643 90.4073 88.9348 90.9002 88.0533 90.6301ZM70.1225 81.0891C69.687 80.9557 69.3424 80.6585 69.1451 80.2788C68.9408 79.9027 68.8876 79.4511 69.0209 79.0159L74.1434 62.3011C74.4117 61.4256 75.3412 60.9326 76.2174 61.2012C76.6582 61.3362 77.0028 61.6334 77.2001 62.0131C77.399 62.3876 77.4576 62.8409 77.3243 63.276L72.2018 79.9908C71.9335 80.8663 71.004 81.3593 70.1225 81.0891ZM107.758 64.3775C107.962 64.7535 108.017 65.1999 107.882 65.6403L102.163 84.3025C101.894 85.178 100.965 85.671 100.089 85.4025C99.6478 85.2674 99.3032 84.9702 99.1058 84.5905C98.9069 84.2161 98.8483 83.7628 98.9816 83.3277L104.701 64.6655C104.969 63.7899 105.899 63.297 106.78 63.5671C107.216 63.7006 107.559 64.003 107.758 64.3775ZM104.824 51.2597C105.023 51.6341 105.082 52.0874 104.948 52.5225L103.872 56.0353C103.604 56.9108 102.674 57.4038 101.798 57.1353C101.357 57.0002 101.018 56.7047 100.82 56.3249C100.622 55.9505 100.563 55.4972 100.696 55.0621L101.773 51.5493C102.041 50.6738 102.971 50.1808 103.847 50.4494C104.288 50.5844 104.627 50.88 104.824 51.2597ZM85.916 40.9084C86.3568 41.0435 86.6961 41.339 86.8934 41.7188C87.0923 42.0932 87.1509 42.5465 87.0176 42.9816L85.9411 46.4944C85.6727 47.3699 84.7432 47.8629 83.867 47.5943C83.4263 47.4593 83.087 47.1637 82.8896 46.784C82.6907 46.4096 82.6321 45.9563 82.7655 45.5212L83.842 42.0084C84.1103 41.1329 85.0398 40.6399 85.916 40.9084ZM62.4757 45.3457C62.2767 44.9713 62.2181 44.518 62.3515 44.0829L63.428 40.5701C63.6963 39.6946 64.6258 39.2016 65.502 39.4702C65.9428 39.6052 66.2821 39.9008 66.4794 40.2805C66.6784 40.6549 66.737 41.1082 66.6036 41.5433L65.5271 45.0561C65.2588 45.9316 64.3293 46.4246 63.4531 46.1561C63.0123 46.021 62.673 45.7255 62.4757 45.3457ZM88.8494 54.0262C89.2849 54.1596 89.6279 54.4621 89.8268 54.8365C90.0311 55.2126 90.086 55.6589 89.951 56.0994L84.2318 74.7616C83.9634 75.6371 83.0339 76.1301 82.1577 75.8615C81.717 75.7265 81.3724 75.4293 81.175 75.0496C80.9761 74.6751 80.9175 74.2218 81.0508 73.7867L86.7701 55.1245C87.0384 54.249 87.9679 53.756 88.8494 54.0262ZM68.4355 52.5879C68.8709 52.7214 69.2139 53.0238 69.4128 53.3983C69.6171 53.7743 69.672 54.2207 69.537 54.6611L63.8178 73.3233C63.5495 74.1988 62.62 74.6918 61.7438 74.4233C61.303 74.2882 60.9584 73.991 60.7611 73.6113C60.5621 73.2369 60.5035 72.7836 60.6369 72.3485L66.3561 53.6863C66.6244 52.8107 67.5539 52.3178 68.4355 52.5879ZM48.7311 78.8405C48.5269 78.4645 48.4736 78.0128 48.6069 77.5777L53.7294 60.8629C53.9977 59.9874 54.9272 59.4944 55.8034 59.7629C56.2442 59.898 56.5888 60.1952 56.7861 60.5749C56.9851 60.9493 57.0437 61.4026 56.9103 61.8377L51.7879 78.5525C51.5195 79.4281 50.59 79.921 49.7085 79.6509C49.2731 79.5174 48.9285 79.2203 48.7311 78.8405Z" fill="white" stroke="#ED1C24" stroke-width="0.5" stroke-miterlimit="10"/>
<path d="M83.312 21.0481L84.3885 17.5353C84.6571 16.6591 84.1639 15.7309 83.287 15.4621C82.41 15.1934 81.4815 15.6859 81.2129 16.5621L80.1364 20.0749C79.8679 20.9511 80.3611 21.8793 81.238 22.148C82.1149 22.4168 83.0435 21.9243 83.312 21.0481Z" fill="white" stroke="#ED1C24" stroke-width="0.5" stroke-miterlimit="10"/>
<path d="M61.566 114.676L61.9596 113.392C62.2281 112.516 61.7349 111.588 60.858 111.319C59.9811 111.05 59.0525 111.543 58.784 112.419L58.3904 113.703C58.1219 114.579 58.6151 115.508 59.492 115.776C60.3689 116.045 61.2975 115.553 61.566 114.676Z" fill="white" stroke="#ED1C24" stroke-width="0.5" stroke-miterlimit="10"/>
<path d="M76.3732 20.9995L77.3262 17.8901C77.3169 18.0149 77.2971 18.1366 77.2597 18.2586L76.5247 20.657C76.4873 20.7791 76.4356 20.8909 76.3732 20.9995Z" fill="white" stroke="#ED1C24" stroke-width="0.5" stroke-miterlimit="10"/>
<path d="M74.4508 21.7571C74.01 21.622 73.6707 21.3265 73.4734 20.9468C73.2745 20.5724 73.2159 20.1191 73.3492 19.6839L74.0843 17.2855C74.3526 16.41 75.2821 15.917 76.1583 16.1855C76.5991 16.3206 76.9384 16.6161 77.1357 16.9959C77.2794 17.2663 77.3467 17.5772 77.3263 17.8902C77.3171 18.015 77.2973 18.1367 77.2599 18.2587L76.5248 20.6571C76.4874 20.7792 76.4357 20.891 76.3734 20.9996C75.9978 21.6566 75.2049 21.9882 74.4508 21.7571Z" fill="white" stroke="#ED1C24" stroke-width="0.5" stroke-miterlimit="10"/>
<path d="M62.8928 19.6081L63.9693 16.0954C64.2379 15.2191 63.7447 14.2909 62.8678 14.0222C61.9908 13.7534 61.0623 14.2459 60.7937 15.1222L59.7172 18.6349C59.4487 19.5112 59.9419 20.4394 60.8188 20.7081C61.6957 20.9768 62.6243 20.4844 62.8928 19.6081Z" fill="white" stroke="#ED1C24" stroke-width="0.5" stroke-miterlimit="10"/>
<path d="M41.1522 113.238L41.5458 111.954C41.8143 111.078 41.3211 110.15 40.4442 109.881C39.5673 109.612 38.6387 110.105 38.3702 110.981L37.9766 112.265C37.7081 113.141 38.2013 114.069 39.0782 114.338C39.9551 114.607 40.8837 114.114 41.1522 113.238Z" fill="white" stroke="#ED1C24" stroke-width="0.5" stroke-miterlimit="10"/>
</g>
<g clip-path="url(#clip1_239_3029)">
<path d="M99.208 107.652L37.9446 89.7212L32.6664 107.755L93.9298 125.686L99.208 107.652Z" fill="white" stroke="#ED1C24" stroke-width="0.5" stroke-miterlimit="10"/>
<path d="M37.9445 89.7211C37.9445 89.7211 34.5019 93.4553 33.1412 98.1043C31.7805 102.753 32.6664 107.754 32.6664 107.754L37.9445 89.7211Z" fill="white" stroke="#ED1C24" stroke-width="0.5" stroke-miterlimit="10"/>
<path d="M99.208 107.652C99.208 107.652 100.094 112.653 98.7332 117.302C97.3725 121.951 93.9298 125.686 93.9298 125.686L99.208 107.652Z" fill="white" stroke="#ED1C24" stroke-width="0.5" stroke-miterlimit="10"/>
<path d="M47.0106 116.464L46.7136 117.479L31.2916 112.965C29.4227 112.418 28.3472 110.461 28.894 108.593L32.4402 96.4771L33.5246 96.7945L30.0108 108.8C29.6112 110.165 30.3934 111.601 31.7639 112.002L47.0106 116.464Z" fill="white" stroke="#ED1C24" stroke-width="0.5" stroke-miterlimit="10"/>
<path d="M77.1438 125.284L76.8469 126.299L92.2689 130.813C94.1378 131.36 96.0987 130.291 96.6455 128.423L100.192 116.307L99.1072 115.99L95.5934 127.995C95.1938 129.36 93.761 130.148 92.3905 129.747L77.1438 125.284Z" fill="white" stroke="#ED1C24" stroke-width="0.5" stroke-miterlimit="10"/>
<path d="M32.4403 96.4771L28.804 95.4128L28.2356 97.3545L31.8719 98.4188L32.4403 96.4771Z" fill="white" stroke="#ED1C24" stroke-width="0.5" stroke-miterlimit="10"/>
<path d="M103.828 117.371L100.192 116.307L99.6233 118.249L103.26 119.313L103.828 117.371Z" fill="white" stroke="#ED1C24" stroke-width="0.5" stroke-miterlimit="10"/>
<path d="M47.7581 197.475C47.1452 199.569 45.7413 201.216 43.9639 202.188C42.1878 203.155 40.0428 203.448 37.9478 202.835L37.6155 202.738C33.4255 201.512 31.0227 197.123 32.2484 192.935L51.8944 133.361L63.3617 136.718L47.7581 197.475Z" fill="white" stroke="#ED1C24" stroke-width="0.5" stroke-miterlimit="10"/>
<path d="M47.8406 112.191L45.9495 120.089C45.9495 120.089 49.4295 121.654 50.8059 125.321C52.1823 128.989 51.8945 133.361 51.8945 133.361L63.3572 136.716C63.3572 136.716 66.0283 131.955 69.3233 130.471C72.6184 128.987 76.1512 128.659 76.1512 128.659L78.3569 121.122L47.8406 112.191Z" fill="white" stroke="#ED1C24" stroke-width="0.5" stroke-miterlimit="10"/>
</g>
<defs>
<clipPath id="clip0_239_3029">
<rect width="109.593" height="63.4229" fill="white" transform="translate(123.712 25.7959) rotate(107.038)"/>
</clipPath>
<clipPath id="clip1_239_3029">
<rect width="78.4073" height="109.193" fill="white" transform="translate(31.0886 87.1787) rotate(16.3142)"/>
</clipPath>
</defs>
</svg>
