<svg width="30" height="30" viewBox="0 0 30 30" fill="none" xmlns="http://www.w3.org/2000/svg">
<path fill-rule="evenodd" clip-rule="evenodd" d="M27.5 7.40521C26.5802 7.81354 25.5917 8.08854 24.5542 8.2125C25.6135 7.57812 26.4271 6.57292 26.8094 5.375C25.8188 5.9625 24.7208 6.38958 23.5521 6.61979C22.6177 5.62292 21.2833 5 19.8083 5C16.4969 5 14.0635 8.08958 14.8115 11.2969C10.55 11.0833 6.77083 9.04167 4.24063 5.93854C2.89687 8.24375 3.54375 11.2594 5.82708 12.7865C4.9875 12.7594 4.19583 12.5292 3.50521 12.1448C3.44896 14.5208 5.15208 16.7438 7.61875 17.2385C6.89687 17.4344 6.10625 17.4802 5.30208 17.326C5.95417 19.3635 7.84792 20.8458 10.0938 20.8875C7.9375 22.5781 5.22083 23.3333 2.5 23.0125C4.76979 24.4677 7.46667 25.3167 10.3625 25.3167C19.8854 25.3167 25.2656 17.274 24.9406 10.0604C25.9427 9.33646 26.8125 8.43333 27.5 7.40521Z" fill="#969696"/>
</svg>
