<svg width="31" height="30" viewBox="0 0 31 30" fill="none" xmlns="http://www.w3.org/2000/svg">
<path fill-rule="evenodd" clip-rule="evenodd" d="M15.5002 2.5C12.1055 2.5 11.6805 2.51458 10.3471 2.575C5.80754 2.78333 3.28462 5.30208 3.07629 9.84583C3.01483 11.1802 3.00024 11.6052 3.00024 15C3.00024 18.3948 3.01483 18.8208 3.07524 20.1542C3.28358 24.6938 5.80233 27.2167 10.3461 27.425C11.6805 27.4854 12.1055 27.5 15.5002 27.5C18.895 27.5 19.3211 27.4854 20.6544 27.425C25.1898 27.2167 27.719 24.6979 27.9242 20.1542C27.9857 18.8208 28.0002 18.3948 28.0002 15C28.0002 11.6052 27.9857 11.1802 27.9252 9.84688C27.7211 5.31146 25.1992 2.78438 20.6555 2.57604C19.3211 2.51458 18.895 2.5 15.5002 2.5ZM15.5002 8.58125C11.9555 8.58125 9.08149 11.4552 9.08149 15C9.08149 18.5448 11.9555 21.4198 15.5002 21.4198C19.045 21.4198 21.919 18.5458 21.919 15C21.919 11.4552 19.045 8.58125 15.5002 8.58125ZM15.5002 19.1667C13.1992 19.1667 11.3336 17.3021 11.3336 15C11.3336 12.699 13.1992 10.8333 15.5002 10.8333C17.8013 10.8333 19.6669 12.699 19.6669 15C19.6669 17.3021 17.8013 19.1667 15.5002 19.1667ZM22.1732 6.82812C21.344 6.82812 20.6721 7.5 20.6721 8.32812C20.6721 9.15625 21.344 9.82812 22.1732 9.82812C23.0013 9.82812 23.6721 9.15625 23.6721 8.32812C23.6721 7.5 23.0013 6.82812 22.1732 6.82812Z" fill="#969696"/>
</svg>
