<svg width="30" height="30" viewBox="0 0 30 30" fill="none" xmlns="http://www.w3.org/2000/svg">
<path fill-rule="evenodd" clip-rule="evenodd" d="M6.5 2.5C4.29086 2.5 2.5 4.29086 2.5 6.5V23.5C2.5 25.7091 4.29086 27.5 6.5 27.5H14.851V18.9472H11.895V15.6141H14.851V13.1561C14.851 10.3034 16.6398 8.75 19.2537 8.75C20.5058 8.75 21.5813 8.8411 21.895 8.8816V11.8632L20.0825 11.8641C18.6612 11.8641 18.3862 12.5221 18.3862 13.4865V15.615H21.7759L21.3346 18.9482H18.3862V27.5H23.5C25.7091 27.5 27.5 25.7091 27.5 23.5V6.5C27.5 4.29086 25.7091 2.5 23.5 2.5H6.5Z" fill="#969696"/>
</svg>
